<svg width="54" height="55" viewBox="0 0 54 55" fill="none" xmlns="http://www.w3.org/2000/svg">
<rect x="0.875676" y="0.875676" width="52.2486" height="53.2486" rx="5.12432" stroke="#D0A220" stroke-width="1.75135"/>
<g clip-path="url(#clip0_306_871)">
<path d="M37.8757 18.8112H21.0757L21.0108 18.2048V18.1839C20.6865 15.7585 18.5027 13.9185 15.9297 13.9185C15.4108 13.9185 15 14.3157 15 14.8175C15 15.3194 15.4108 15.7166 15.9297 15.7166C17.5514 15.7166 18.9351 16.8666 19.1514 18.4139L20.2757 28.2203C19.3027 28.6385 18.6108 29.5794 18.6108 30.6666V30.6875V30.7085C18.6108 32.193 19.8649 33.4057 21.4216 33.4057H21.8108C21.7243 33.6775 21.6595 33.9703 21.6595 34.263C21.6595 35.7266 22.8919 36.9185 24.427 36.9185C25.9622 36.9185 27.1946 35.7266 27.1946 34.263C27.1946 33.9703 27.1514 33.6775 27.0432 33.4057H31.0865C31 33.6775 30.9351 33.9703 30.9351 34.263C30.9351 35.7266 32.1676 36.9185 33.7027 36.9185C35.2378 36.9185 36.4703 35.7266 36.4703 34.263C36.4703 32.7994 35.2378 31.6075 33.7027 31.6075H21.4216C20.9027 31.6075 20.4919 31.2103 20.4919 30.7085V30.6875V30.6666C20.4919 30.1648 20.9027 29.7675 21.4216 29.7675H33.4C35.0649 29.7675 36.6 28.7848 37.2919 27.2585C37.3135 27.1957 37.3351 27.133 37.3568 27.0703C37.3784 27.0075 37.4 26.9657 37.4216 26.903L39 19.8985C39.0649 19.6266 38.9784 19.3548 38.8054 19.1457C38.6324 18.9366 38.3514 18.8112 38.0703 18.8112H37.7243H37.8757ZM33.7027 33.4057C34.2 33.4057 34.5892 33.7821 34.5892 34.263C34.5892 34.7439 34.2 35.1203 33.7027 35.1203C33.2054 35.1203 32.8162 34.7439 32.8162 34.263C32.8162 33.7821 33.2054 33.4057 33.7027 33.4057ZM24.427 33.4057C24.9243 33.4057 25.3135 33.7821 25.3135 34.263C25.3135 34.7439 24.9243 35.1203 24.427 35.1203C23.9297 35.1203 23.5405 34.7439 23.5405 34.263C23.5405 33.7821 23.9297 33.4057 24.427 33.4057ZM35.0649 18.8112H29.3784H35.0649ZM26.7189 18.8112H23.9946H26.7189ZM33.4 27.9694H22.1135L21.2919 20.6094H36.9243L35.5838 26.5475C35.173 27.4048 34.2865 27.9694 33.4 27.9694Z" fill="#D0A220"/>
</g>
<rect x="0.875676" y="0.875676" width="52.2486" height="46.4585" rx="5.12432" stroke="#D0A220" stroke-width="1.75135"/>
<defs>
<clipPath id="clip0_306_871">
<rect width="24" height="23" fill="white" transform="translate(15 13.9185)"/>
</clipPath>
</defs>
</svg>
