<svg width="23" height="14" viewBox="0 0 23 14" fill="none" xmlns="http://www.w3.org/2000/svg">
<path fill-rule="evenodd" clip-rule="evenodd" d="M-4.30862e-07 3.52786L-5.74493e-07 0.242146L3.28571 0.242145L3.28571 3.52786L-4.30862e-07 3.52786ZM6.57422 6.81365L6.57422 10.0994L9.85937 10.0994L9.85938 13.385L13.1451 13.385L13.1451 10.0994L16.4263 10.0994L16.4263 6.81365L13.1406 6.81365L13.1406 10.0993L9.85993 10.0993L9.85993 6.81365L6.57422 6.81365ZM3.28516 3.52788L3.28516 6.8136L6.57087 6.8136L6.57087 3.52788L3.28516 3.52788ZM16.4258 6.8136L16.4258 3.52788L19.7115 3.52788L19.7115 6.8136L16.4258 6.8136ZM19.7148 0.242118L19.7148 3.52783L23.0006 3.52783L23.0006 0.242118L19.7148 0.242118Z" fill="#EEEEEE"/>
</svg>
