<svg width="45" height="26" viewBox="0 0 45 26" fill="none" xmlns="http://www.w3.org/2000/svg">
<g filter="url(#filter0_d_316_1575)">
<path fill-rule="evenodd" clip-rule="evenodd" d="M0.499999 5.92861L0.499999 0.000391006L6.42821 0.000390747L6.42821 5.92861L0.499999 5.92861ZM12.3594 11.8572L12.3594 17.7854L18.2876 17.7854L18.2876 11.8572L12.3594 11.8572ZM18.2812 17.7854L18.2812 23.7136L24.2095 23.7136L24.2095 17.7854L18.2812 17.7854ZM6.42187 5.92896L6.42187 11.8572L12.3501 11.8572L12.3501 5.92896L6.42187 5.92896ZM24.2149 11.8573L24.2149 17.7855L30.1431 17.7855L30.1431 11.8573L24.2149 11.8573ZM30.1443 11.8571L30.1443 5.92892L36.0726 5.92892L36.0726 11.8571L30.1443 11.8571ZM36.0742 0.000496263L36.0742 5.92871L42.0024 5.92871L42.0024 0.000496004L36.0742 0.000496263Z" fill="#D0A220"/>
</g>
<defs>
<filter id="filter0_d_316_1575" x="0.5" y="0.000488281" width="43.5039" height="25.7131" filterUnits="userSpaceOnUse" color-interpolation-filters="sRGB">
<feFlood flood-opacity="0" result="BackgroundImageFix"/>
<feColorMatrix in="SourceAlpha" type="matrix" values="0 0 0 0 0 0 0 0 0 0 0 0 0 0 0 0 0 0 127 0" result="hardAlpha"/>
<feOffset dx="2" dy="2"/>
<feComposite in2="hardAlpha" operator="out"/>
<feColorMatrix type="matrix" values="0 0 0 0 0.206822 0 0 0 0 0.0559098 0 0 0 0 0.691667 0 0 0 1 0"/>
<feBlend mode="normal" in2="BackgroundImageFix" result="effect1_dropShadow_316_1575"/>
<feBlend mode="normal" in="SourceGraphic" in2="effect1_dropShadow_316_1575" result="shape"/>
</filter>
</defs>
</svg>
