<svg width="55" height="32" viewBox="0 0 55 32" fill="none" xmlns="http://www.w3.org/2000/svg">
<path fill-rule="evenodd" clip-rule="evenodd" d="M-1.0285e-06 7.84313L-1.37134e-06 -1.52588e-05L7.84314 -1.56016e-05L7.84314 7.84313L-1.0285e-06 7.84313ZM15.6863 15.6863L7.84314 15.6863L7.84314 7.84313L15.6863 7.84313L15.6863 15.6863ZM23.5294 23.5294L15.6863 23.5294L15.6863 15.6863L23.5294 15.6863L23.5294 23.5294ZM31.3726 23.5294L31.3726 31.3726L23.5294 31.3726L23.5294 23.5294L31.3726 23.5294ZM39.2157 15.6863L39.2157 23.5294L31.3726 23.5294L31.3726 15.6863L39.2157 15.6863ZM47.0589 7.84313L39.2157 7.84313L39.2157 15.6863L47.0589 15.6863L47.0589 7.84313ZM47.0589 7.84313L54.902 7.84313L54.902 -1.57513e-05L47.0589 -1.54084e-05L47.0589 7.84313Z" fill="#EE5A60"/>
</svg>
