<svg width="23" height="23" viewBox="0 0 23 23" fill="none" xmlns="http://www.w3.org/2000/svg">
<path d="M18.2092 8.37354C17.5893 8.37354 17.0861 8.87666 17.0861 9.49658V19.2087C17.0861 20.0622 16.3943 20.754 15.5408 20.754H7.01016C6.15664 20.754 5.46484 20.0622 5.46484 19.2087V9.49658C5.46484 8.87666 4.96172 8.37354 4.3418 8.37354C3.72187 8.37354 3.21875 8.87666 3.21875 9.49658V19.2087C3.21875 21.2976 4.92129 23.0001 7.01016 23.0001H15.5408C17.6297 23.0001 19.3322 21.2976 19.3322 19.2087V9.49658C19.3322 8.87666 18.8291 8.37354 18.2092 8.37354Z" fill="#545454"/>
<path d="M18.2092 4.33047H16.0125C15.7969 1.90918 13.7574 0 11.2777 0C8.79805 0 6.7541 1.90918 6.53848 4.33047H4.3418C3.72187 4.33047 3.21875 4.83359 3.21875 5.45352C3.21875 6.07344 3.72187 6.57656 4.3418 6.57656H18.2092C18.8291 6.57656 19.3322 6.07344 19.3322 5.45352C19.3322 4.83359 18.8291 4.33047 18.2092 4.33047ZM11.2777 2.24609C12.5176 2.24609 13.5508 3.14902 13.7529 4.33047H8.80254C9.00469 3.14902 10.0379 2.24609 11.2777 2.24609Z" fill="#545454"/>
<path d="M8.77549 17.1197C8.99561 17.3398 9.28311 17.4476 9.57061 17.4476C9.85811 17.4476 10.1456 17.3398 10.3657 17.1197L11.3854 16.0999L12.4052 17.1197C12.6253 17.3398 12.9128 17.4476 13.2003 17.4476C13.4878 17.4476 13.7753 17.3398 13.9954 17.1197C14.4356 16.6794 14.4356 15.9697 13.9954 15.5294L12.9712 14.5097L13.9909 13.49C14.4312 13.0498 14.4312 12.34 13.9909 11.8998C13.5507 11.4595 12.8409 11.4595 12.4007 11.8998L11.381 12.9195L10.3657 11.9042C9.92549 11.464 9.21572 11.464 8.77549 11.9042C8.33525 12.3445 8.33525 13.0542 8.77549 13.4945L9.79522 14.5142L8.77549 15.5339C8.33975 15.9697 8.33975 16.6794 8.77549 17.1197Z" fill="#545454"/>
</svg>
