<svg width="22" height="22" viewBox="0 0 22 22" fill="none" xmlns="http://www.w3.org/2000/svg">
<path d="M17.4168 8.00928C16.8238 8.00928 16.3426 8.49053 16.3426 9.0835V18.3733C16.3426 19.1897 15.6809 19.8515 14.8645 19.8515H6.70469C5.88828 19.8515 5.22656 19.1897 5.22656 18.3733V9.0835C5.22656 8.49053 4.74531 8.00928 4.15234 8.00928C3.55937 8.00928 3.07812 8.49053 3.07812 9.0835V18.3733C3.07812 20.3714 4.70664 21.9999 6.70469 21.9999H14.8645C16.8625 21.9999 18.491 20.3714 18.491 18.3733V9.0835C18.491 8.49053 18.0098 8.00928 17.4168 8.00928Z" fill="#EE5A60"/>
<path d="M17.4168 4.14219H15.3156C15.1094 1.82617 13.1586 0 10.7867 0C8.41484 0 6.45977 1.82617 6.25352 4.14219H4.15234C3.55937 4.14219 3.07812 4.62344 3.07812 5.21641C3.07812 5.80938 3.55937 6.29062 4.15234 6.29062H17.4168C18.0098 6.29062 18.491 5.80938 18.491 5.21641C18.491 4.62344 18.0098 4.14219 17.4168 4.14219ZM10.7867 2.14844C11.9727 2.14844 12.9609 3.01211 13.1543 4.14219H8.41914C8.6125 3.01211 9.60078 2.14844 10.7867 2.14844Z" fill="#EE5A60"/>
<path d="M8.39395 16.3754C8.60449 16.586 8.87949 16.6891 9.15449 16.6891C9.42949 16.6891 9.70449 16.586 9.91504 16.3754L10.8904 15.4L11.8658 16.3754C12.0764 16.586 12.3514 16.6891 12.6264 16.6891C12.9014 16.6891 13.1764 16.586 13.3869 16.3754C13.808 15.9543 13.808 15.2754 13.3869 14.8543L12.4072 13.879L13.3826 12.9036C13.8037 12.4825 13.8037 11.8036 13.3826 11.3825C12.9615 10.9614 12.2826 10.9614 11.8615 11.3825L10.8861 12.3579L9.91504 11.3868C9.49395 10.9657 8.81504 10.9657 8.39395 11.3868C7.97285 11.8079 7.97285 12.4868 8.39395 12.9079L9.36934 13.8833L8.39395 14.8586C7.97715 15.2754 7.97715 15.9543 8.39395 16.3754Z" fill="#EE5A60"/>
</svg>
