<svg width="16" height="11" viewBox="0 0 16 11" fill="none" xmlns="http://www.w3.org/2000/svg">
<path fill-rule="evenodd" clip-rule="evenodd" d="M11.6797 10.0801L10.2397 10.0801L10.2397 8.64008L11.6772 8.64008L11.6772 7.20014L13.1172 7.20014L13.1172 8.64014L11.6797 8.64014L11.6797 10.0801ZM13.1186 7.19995L14.5586 7.19995L14.5586 5.76016L16 5.76016L16 4.32016L5.03548e-07 4.32015L3.7766e-07 5.76015L13.1186 5.76016L13.1186 7.19995ZM13.1186 4.32007L14.5586 4.32007L14.5586 2.88007L13.1186 2.88007L13.1186 4.32007ZM13.1172 2.88013L11.6772 2.88013L11.6772 1.44013L13.1172 1.44013L13.1172 2.88013ZM10.2397 1.43994L11.6797 1.43994L11.6797 -5.85518e-05L10.2397 -5.86777e-05L10.2397 1.43994Z" fill="#8C8C8C"/>
</svg>
