<svg width="21" height="23" viewBox="0 0 21 23" fill="none" xmlns="http://www.w3.org/2000/svg">
<path d="M0.742188 21C0.742188 21.8285 1.41376 22.5 2.24219 22.5C3.07061 22.5 3.74219 21.8285 3.74219 21L0.742188 21ZM3.74219 14.4844C3.74219 13.6559 3.07061 12.9844 2.24219 12.9844C1.41376 12.9844 0.742187 13.6559 0.742188 14.4844L3.74219 14.4844ZM3.74219 21L3.74219 14.4844L0.742188 14.4844L0.742188 21L3.74219 21Z" fill="#5E64A9"/>
<path d="M6.32813 20.9999C6.32813 21.8284 6.9997 22.4999 7.82813 22.4999C8.65655 22.4999 9.32813 21.8284 9.32813 20.9999L6.32813 20.9999ZM9.32812 2.38379C9.32812 1.55536 8.65655 0.883789 7.82812 0.883789C6.9997 0.883789 6.32812 1.55536 6.32812 2.38379L9.32812 2.38379ZM9.32813 20.9999L9.32812 2.38379L6.32812 2.38379L6.32813 20.9999L9.32813 20.9999Z" fill="#5E64A9"/>
<path d="M11.9063 20.9998C11.9063 21.8282 12.5778 22.4998 13.4063 22.4998C14.2347 22.4998 14.9063 21.8282 14.9063 20.9998L11.9063 20.9998ZM14.9062 9.83008C14.9062 9.00165 14.2347 8.33008 13.4062 8.33008C12.5778 8.33008 11.9062 9.00165 11.9062 9.83008L14.9062 9.83008ZM14.9063 20.9998L14.9062 9.83008L11.9062 9.83008L11.9063 20.9998L14.9063 20.9998Z" fill="#5E64A9"/>
<path d="M17.5 21.0005C17.5 21.8289 18.1716 22.5005 19 22.5005C19.8284 22.5005 20.5 21.8289 20.5 21.0005L17.5 21.0005ZM20.5 7.03833C20.5 6.2099 19.8284 5.53833 19 5.53833C18.1716 5.53833 17.5 6.2099 17.5 7.03833L20.5 7.03833ZM20.5 21.0005L20.5 7.03833L17.5 7.03833L17.5 21.0005L20.5 21.0005Z" fill="#5E64A9"/>
</svg>
