<svg width="28" height="31" viewBox="0 0 28 31" fill="none" xmlns="http://www.w3.org/2000/svg">
<g filter="url(#filter0_d_238_456)">
<path d="M0.671875 26.9613C0.671875 27.7897 1.34345 28.4613 2.17188 28.4613C3.0003 28.4613 3.67188 27.7897 3.67188 26.9613L0.671875 26.9613ZM3.67188 18.3076C3.67187 17.4792 3.0003 16.8076 2.17187 16.8076C1.34345 16.8076 0.671875 17.4792 0.671875 18.3076L3.67188 18.3076ZM3.67188 26.9613L3.67188 18.3076L0.671875 18.3076L0.671875 26.9613L3.67188 26.9613Z" fill="#D0A220"/>
<path d="M8.08984 26.9612C8.08984 27.7896 8.76142 28.4612 9.58984 28.4612C10.4183 28.4612 11.0898 27.7896 11.0898 26.9612L8.08984 26.9612ZM11.0898 2.23633C11.0898 1.4079 10.4183 0.736328 9.58984 0.736328C8.76142 0.736328 8.08984 1.4079 8.08984 2.23633L11.0898 2.23633ZM11.0898 26.9612L11.0898 2.23633L8.08984 2.23633L8.08984 26.9612L11.0898 26.9612Z" fill="#D0A220"/>
<path d="M15.5078 26.9611C15.5078 27.7895 16.1794 28.4611 17.0078 28.4611C17.8362 28.4611 18.5078 27.7895 18.5078 26.9611L15.5078 26.9611ZM18.5078 12.1262C18.5078 11.2978 17.8362 10.6262 17.0078 10.6262C16.1794 10.6262 15.5078 11.2978 15.5078 12.1262L18.5078 12.1262ZM18.5078 26.9611L18.5078 12.1262L15.5078 12.1262L15.5078 26.9611L18.5078 26.9611Z" fill="#D0A220"/>
<path d="M22.9258 26.9613C22.9258 27.7898 23.5974 28.4613 24.4258 28.4613C25.2542 28.4613 25.9258 27.7898 25.9258 26.9613L22.9258 26.9613ZM25.9258 8.41772C25.9258 7.5893 25.2542 6.91772 24.4258 6.91772C23.5974 6.91772 22.9258 7.5893 22.9258 8.41772L25.9258 8.41772ZM25.9258 26.9613L25.9258 8.41772L22.9258 8.41772L22.9258 26.9613L25.9258 26.9613Z" fill="#D0A220"/>
</g>
<defs>
<filter id="filter0_d_238_456" x="0.671875" y="0.736328" width="27.2539" height="29.7251" filterUnits="userSpaceOnUse" color-interpolation-filters="sRGB">
<feFlood flood-opacity="0" result="BackgroundImageFix"/>
<feColorMatrix in="SourceAlpha" type="matrix" values="0 0 0 0 0 0 0 0 0 0 0 0 0 0 0 0 0 0 127 0" result="hardAlpha"/>
<feOffset dx="2" dy="2"/>
<feComposite in2="hardAlpha" operator="out"/>
<feColorMatrix type="matrix" values="0 0 0 0 0.211765 0 0 0 0 0.227451 0 0 0 0 0.470588 0 0 0 1 0"/>
<feBlend mode="normal" in2="BackgroundImageFix" result="effect1_dropShadow_238_456"/>
<feBlend mode="normal" in="SourceGraphic" in2="effect1_dropShadow_238_456" result="shape"/>
</filter>
</defs>
</svg>
