<svg width="26" height="29" viewBox="0 0 26 29" fill="none" xmlns="http://www.w3.org/2000/svg">
<path d="M0.671875 26.9611C0.671875 27.7895 1.34345 28.4611 2.17188 28.4611C3.0003 28.4611 3.67188 27.7895 3.67188 26.9611L0.671875 26.9611ZM3.67188 18.3074C3.67187 17.4789 3.0003 16.8074 2.17187 16.8074C1.34345 16.8074 0.671875 17.4789 0.671875 18.3074L3.67188 18.3074ZM3.67188 26.9611L3.67188 18.3074L0.671875 18.3074L0.671875 26.9611L3.67188 26.9611Z" fill="#EEEEEE"/>
<path d="M8.08984 26.9609C8.08984 27.7893 8.76142 28.4609 9.58984 28.4609C10.4183 28.4609 11.0898 27.7893 11.0898 26.9609L8.08984 26.9609ZM11.0898 2.23608C11.0898 1.40766 10.4183 0.736084 9.58984 0.736084C8.76142 0.736084 8.08984 1.40766 8.08984 2.23608L11.0898 2.23608ZM11.0898 26.9609L11.0898 2.23608L8.08984 2.23608L8.08984 26.9609L11.0898 26.9609Z" fill="#EEEEEE"/>
<path d="M15.5078 26.9609C15.5078 27.7893 16.1794 28.4609 17.0078 28.4609C17.8362 28.4609 18.5078 27.7893 18.5078 26.9609L15.5078 26.9609ZM18.5078 12.126C18.5078 11.2975 17.8362 10.626 17.0078 10.626C16.1794 10.626 15.5078 11.2975 15.5078 12.126L18.5078 12.126ZM18.5078 26.9609L18.5078 12.126L15.5078 12.126L15.5078 26.9609L18.5078 26.9609Z" fill="#EEEEEE"/>
<path d="M22.9258 26.9611C22.9258 27.7895 23.5974 28.4611 24.4258 28.4611C25.2542 28.4611 25.9258 27.7895 25.9258 26.9611L22.9258 26.9611ZM25.9258 8.41748C25.9258 7.58905 25.2542 6.91748 24.4258 6.91748C23.5974 6.91748 22.9258 7.58905 22.9258 8.41748L25.9258 8.41748ZM25.9258 26.9611L25.9258 8.41748L22.9258 8.41748L22.9258 26.9611L25.9258 26.9611Z" fill="#EEEEEE"/>
</svg>
