<svg width="28" height="28" viewBox="0 0 28 28" fill="none" xmlns="http://www.w3.org/2000/svg">
<path fill-rule="evenodd" clip-rule="evenodd" d="M0 27.7755H3.96793L3.96793 23.8076H3.46859e-07L0 27.7755ZM11.9015 19.8398H7.93359L7.93359 15.8718L11.9015 15.8718V19.8398ZM11.9953 15.8717H11.9023L11.9023 11.9038H15.8703V11.904H15.9632V15.8719H11.9953V15.8717ZM7.93278 23.8075H3.96484L3.96484 19.8396H7.93278V23.8075ZM11.9015 11.9037L7.93359 11.9037L7.93359 7.93579H11.9015V11.9037ZM3.96484 7.93595L7.93278 7.93595V3.96802L3.96484 3.96802L3.96484 7.93595ZM3.96793 3.96793L1.73983e-07 3.96793L5.20842e-07 0L3.96793 3.46889e-07L3.96793 3.96793ZM27.8656 0.000159697H23.8976V3.96809H27.8656V0.000159697ZM15.964 7.93595H19.932V11.9039H15.964V7.93595ZM19.9328 3.96818H23.9007V7.93611H19.9328V3.96818ZM15.964 15.872H19.932V19.8399H15.964V15.872ZM23.9007 19.8398H19.9328V23.8077H23.9007V19.8398ZM23.8976 23.8078H27.8656V27.7757H23.8976V23.8078Z" fill="#D0A220"/>
</svg>
