<svg width="18" height="18" viewBox="0 0 18 18" fill="none" xmlns="http://www.w3.org/2000/svg">
<g clip-path="url(#clip0_410_6370)">
<path d="M11.1442 11.6009H10.6169V6.85519C10.6169 6.56399 10.3808 6.32788 10.0896 6.32788H6.92575C6.63455 6.32788 6.39844 6.56395 6.39844 6.85519V8.96438C6.39844 9.25558 6.63451 9.49169 6.92575 9.49169H7.45305V11.6009H6.92575C6.63455 11.6009 6.39844 11.837 6.39844 12.1282V14.2374C6.39844 14.5286 6.63451 14.7647 6.92575 14.7647H11.1442C11.4354 14.7647 11.6715 14.5286 11.6715 14.2374V12.1282C11.6715 11.837 11.4354 11.6009 11.1442 11.6009ZM10.6169 13.7102H7.45305V12.6555H7.98036C8.27156 12.6555 8.50767 12.4195 8.50767 12.1282V8.96442C8.50767 8.67322 8.27156 8.43711 7.98036 8.43711H7.45305V7.3825H9.56225V12.1282C9.56225 12.4194 9.79836 12.6555 10.0896 12.6555H10.6169V13.7102Z" fill="#D0A220"/>
<path d="M9.03505 2.1095C8.16279 2.1095 7.45312 2.81912 7.45312 3.69142C7.45312 4.56372 8.16275 5.27334 9.03505 5.27334C9.90734 5.27334 10.617 4.56372 10.617 3.69142C10.617 2.81912 9.90734 2.1095 9.03505 2.1095ZM9.03505 4.21869C8.74431 4.21869 8.50774 3.98216 8.50774 3.69138C8.50774 3.40064 8.74431 3.16408 9.03505 3.16408C9.32579 3.16408 9.56236 3.40064 9.56236 3.69138C9.56236 3.98216 9.32583 4.21869 9.03505 4.21869Z" fill="#D0A220"/>
<path d="M9.03581 0.000297546C4.11802 0.000297546 0.00137301 3.97351 0.00137301 8.96446C0.00137301 10.6996 0.49922 12.424 1.40822 13.853L0.0390956 17.2758C-0.133908 17.7082 0.298408 18.1317 0.724501 17.9612L4.14731 16.5921C5.57633 17.5011 7.30071 17.999 9.03584 17.999C14.0322 17.999 18 13.877 18 8.96453C18 4.00997 13.9907 0.000297546 9.03581 0.000297546ZM9.03581 16.9513C7.41384 16.9513 5.80485 16.4544 4.50527 15.565C4.3599 15.4655 4.17476 15.4453 4.0116 15.5105L1.47519 16.5251L2.48976 13.9887C2.55508 13.8254 2.53466 13.6402 2.43531 13.495C1.54582 12.1955 1.04892 10.5865 1.04892 8.96449C1.04892 4.60316 4.6357 1.04792 9.03581 1.04792C13.3971 1.04792 16.9524 4.61019 16.9524 8.97152C16.9524 13.3716 13.3972 16.9513 9.03581 16.9513Z" fill="#D0A220"/>
</g>
<defs>
<clipPath id="clip0_410_6370">
<rect width="18" height="18" fill="white"/>
</clipPath>
</defs>
</svg>
