<svg width="26" height="26" viewBox="0 0 26 26" fill="none" xmlns="http://www.w3.org/2000/svg">
<path d="M8.42173 12.6316C8.42173 10.3063 10.3063 8.42072 12.6316 8.42072C14.9569 8.42072 16.8424 10.3063 16.8424 12.6316C16.8424 14.9569 14.9569 16.8424 12.6316 16.8424C10.3063 16.8424 8.42173 14.9569 8.42173 12.6316ZM6.14541 12.6316C6.14541 16.2139 9.04926 19.1177 12.6316 19.1177C16.2139 19.1177 19.1177 16.2139 19.1177 12.6316C19.1177 9.04926 16.2139 6.14541 12.6316 6.14541C9.04926 6.14541 6.14541 9.04926 6.14541 12.6316ZM17.8587 5.88824C17.8586 6.18803 17.9474 6.48113 18.1138 6.73047C18.2803 6.9798 18.517 7.17418 18.7939 7.28902C19.0708 7.40385 19.3756 7.43399 19.6696 7.37562C19.9637 7.31725 20.2338 7.173 20.4459 6.9611C20.658 6.74919 20.8025 6.47916 20.8611 6.18515C20.9197 5.89114 20.8898 5.58635 20.7752 5.30933C20.6605 5.03231 20.4664 4.7955 20.2171 4.62885C19.9679 4.46219 19.6749 4.37317 19.3751 4.37305H19.3745C18.9727 4.37324 18.5873 4.53292 18.3031 4.81701C18.0189 5.1011 17.8591 5.48639 17.8587 5.88824ZM7.52842 22.9134C6.29689 22.8573 5.62752 22.6522 5.18269 22.4789C4.59294 22.2493 4.17216 21.9758 3.72975 21.534C3.28734 21.0922 3.01349 20.6718 2.78491 20.0821C2.6115 19.6375 2.40637 18.9679 2.35038 17.7364C2.28914 16.4049 2.27692 16.0049 2.27692 12.6317C2.27692 9.25844 2.29016 8.85959 2.35038 7.52701C2.40647 6.29548 2.61312 5.62722 2.78491 5.18127C3.0145 4.59153 3.28795 4.17075 3.72975 3.72834C4.17155 3.28593 4.59193 3.01208 5.18269 2.78349C5.62732 2.61009 6.29689 2.40495 7.52842 2.34897C8.85989 2.28773 9.25986 2.2755 12.6316 2.2755C16.0033 2.2755 16.4037 2.28874 17.7363 2.34897C18.9678 2.40505 19.636 2.61171 20.082 2.78349C20.6717 3.01208 21.0925 3.28654 21.5349 3.72834C21.9773 4.17014 22.2502 4.59153 22.4798 5.18127C22.6532 5.6259 22.8583 6.29548 22.9143 7.52701C22.9755 8.85959 22.9878 9.25844 22.9878 12.6317C22.9878 16.0049 22.9755 16.4038 22.9143 17.7364C22.8582 18.9679 22.6521 19.6373 22.4798 20.0821C22.2502 20.6718 21.9767 21.0926 21.5349 21.534C21.0931 21.9754 20.6717 22.2493 20.082 22.4789C19.6374 22.6523 18.9678 22.8574 17.7363 22.9134C16.4048 22.9746 16.0048 22.9868 12.6316 22.9868C9.25834 22.9868 8.85949 22.9746 7.52842 22.9134ZM7.42383 0.0764968C6.07912 0.137735 5.16025 0.350956 4.35779 0.663208C3.52674 0.985667 2.82321 1.41827 2.12019 2.12019C1.41716 2.8221 0.985667 3.52674 0.663208 4.35779C0.350956 5.16076 0.137735 6.07912 0.0764968 7.42383C0.0142484 8.77066 0 9.20125 0 12.6316C0 16.0619 0.0142484 16.4925 0.0764968 17.8393C0.137735 19.1841 0.350956 20.1024 0.663208 20.9054C0.985667 21.7359 1.41726 22.4414 2.12019 23.143C2.82311 23.8446 3.52674 24.2766 4.35779 24.6C5.16177 24.9122 6.07912 25.1254 7.42383 25.1867C8.77137 25.2479 9.20125 25.2632 12.6316 25.2632C16.0619 25.2632 16.4925 25.2489 17.8393 25.1867C19.1841 25.1254 20.1024 24.9122 20.9054 24.6C21.7359 24.2766 22.4399 23.8449 23.143 23.143C23.846 22.4411 24.2766 21.7359 24.5999 20.9054C24.9122 20.1024 25.1264 19.184 25.1867 17.8393C25.2479 16.4915 25.2621 16.0619 25.2621 12.6316C25.2621 9.20125 25.2479 8.77066 25.1867 7.42383C25.1254 6.07902 24.9122 5.16025 24.5999 4.35779C24.2766 3.52724 23.8449 2.82321 23.143 2.12019C22.4411 1.41716 21.7359 0.985667 20.9064 0.663208C20.1024 0.350956 19.184 0.136724 17.8403 0.0764968C16.4935 0.015259 16.0629 0 12.6326 0C9.20226 0 8.77137 0.0142484 7.42383 0.0764968Z" fill="#D0A220"/>
</svg>
