<svg width="20" height="20" viewBox="0 0 20 20" fill="none" xmlns="http://www.w3.org/2000/svg">
<path d="M8 19H12M17 19V3C17 2.46957 16.7893 1.96086 16.4142 1.58579C16.0391 1.21071 15.5304 1 15 1H5C4.46957 1 3.96086 1.21071 3.58579 1.58579C3.21071 1.96086 3 2.46957 3 3V19H17ZM17 19H19H17ZM17 19H12H17ZM3 19H1H3ZM3 19H8H3ZM7 5H8H7ZM7 9H8H7ZM12 5H13H12ZM12 9H13H12ZM8 19V14C8 13.7348 8.10536 13.4804 8.29289 13.2929C8.48043 13.1054 8.73478 13 9 13H11C11.2652 13 11.5196 13.1054 11.7071 13.2929C11.8946 13.4804 12 13.7348 12 14V19H8Z" stroke="#D0A220" stroke-width="2" stroke-linecap="round" stroke-linejoin="round"/>
</svg>
