<svg width="25" height="29" viewBox="0 0 25 29" fill="none" xmlns="http://www.w3.org/2000/svg">
<path d="M12.6773 14.3624C16.0911 14.3624 18.8585 11.595 18.8585 8.18121C18.8585 4.76742 16.0911 2 12.6773 2C9.26351 2 6.49609 4.76742 6.49609 8.18121C6.49609 11.595 9.26351 14.3624 12.6773 14.3624Z" stroke="#EEEEEE" stroke-width="3"/>
<path d="M18.858 16.835H19.2931C20.1969 16.8352 21.0695 17.1655 21.747 17.7637C22.4244 18.362 22.8601 19.187 22.9722 20.0838L23.4556 23.9458C23.499 24.2937 23.468 24.6469 23.3646 24.9819C23.2611 25.3169 23.0876 25.6261 22.8555 25.8889C22.6235 26.1518 22.3381 26.3622 22.0185 26.5063C21.6989 26.6505 21.3522 26.725 21.0016 26.7249H4.35193C4.00131 26.725 3.65468 26.6505 3.33505 26.5063C3.01542 26.3622 2.7301 26.1518 2.49803 25.8889C2.26596 25.6261 2.09243 25.3169 1.98898 24.9819C1.88553 24.6469 1.85451 24.2937 1.89799 23.9458L2.38012 20.0838C2.49225 19.1866 2.92829 18.3612 3.60627 17.7629C4.28424 17.1646 5.15743 16.8346 6.06165 16.835H6.49557" stroke="#EEEEEE" stroke-width="3" stroke-linecap="round" stroke-linejoin="round"/>
</svg>
