<svg width="170" height="26" viewBox="0 0 170 26" fill="none" xmlns="http://www.w3.org/2000/svg">
<g filter="url(#filter0_d_225_3856)">
<path d="M1 21.9821V0.857143H19.1071V3.875H22.125V12.9286H19.1071V15.9464H7.03571V21.9821H1ZM7.03571 12.9286H16.0893V3.875H7.03571V12.9286ZM25.1429 21.9821V0.857143H43.25V3.875H46.2679V12.9286H40.2321V15.9464H43.25V18.9643H46.2679V21.9821H37.2143V18.9643H34.1964V15.9464H31.1786V21.9821H25.1429ZM31.1786 12.9286H37.2143V9.91071H40.2321V3.875H31.1786V12.9286ZM52.3036 21.9821V18.9643H49.2857V3.875H52.3036V0.857143H67.3929V3.875H70.4107V18.9643H67.3929V21.9821H52.3036ZM55.3214 18.9643H64.375V3.875H55.3214V18.9643Z" fill="#D0A220"/>
<path d="M79.4643 21.9821V18.9643H76.4464V15.9464H73.4286V6.89286H76.4464V3.875H79.4643V0.857143H91.5357V3.875H94.5536V6.89286H88.5179V3.875H82.4821V6.89286H79.4643V15.9464H82.4821V18.9643H88.5179V15.9464H94.5536V18.9643H91.5357V21.9821H79.4643ZM100.589 21.9821V18.9643H97.5714V3.875H100.589V0.857143H115.679V3.875H118.696V18.9643H115.679V21.9821H100.589ZM103.607 18.9643H112.661V3.875H103.607V18.9643ZM121.714 21.9821V0.857143H127.75V3.875H130.768V6.89286H133.786V3.875H136.804V0.857143H142.839V21.9821H136.804V9.91071H133.786V15.9464H130.768V9.91071H127.75V21.9821H121.714ZM145.857 21.9821V0.857143H163.964V3.875H166.982V12.9286H163.964V15.9464H151.893V21.9821H145.857ZM151.893 12.9286H160.946V3.875H151.893V12.9286Z" fill="#EE5A60"/>
<path d="M1 21.9821H0.517143V22.465H1V21.9821ZM1 0.857143V0.374286H0.517143V0.857143H1ZM19.1071 0.857143H19.59V0.374286H19.1071V0.857143ZM19.1071 3.875H18.6243V4.35786H19.1071V3.875ZM22.125 3.875H22.6079V3.39214H22.125V3.875ZM22.125 12.9286V13.4114H22.6079V12.9286H22.125ZM19.1071 12.9286V12.4457H18.6243V12.9286H19.1071ZM19.1071 15.9464V16.4293H19.59V15.9464H19.1071ZM7.03571 15.9464V15.4636H6.55286V15.9464H7.03571ZM7.03571 21.9821V22.465H7.51857V21.9821H7.03571ZM7.03571 12.9286H6.55286V13.4114H7.03571V12.9286ZM16.0893 12.9286V13.4114H16.5721V12.9286H16.0893ZM16.0893 3.875H16.5721V3.39214H16.0893V3.875ZM7.03571 3.875V3.39214H6.55286V3.875H7.03571ZM1.48286 21.9821V0.857143H0.517143V21.9821H1.48286ZM1 1.34H19.1071V0.374286H1V1.34ZM18.6243 0.857143V3.875H19.59V0.857143H18.6243ZM19.1071 4.35786H22.125V3.39214H19.1071V4.35786ZM21.6421 3.875V12.9286H22.6079V3.875H21.6421ZM22.125 12.4457H19.1071V13.4114H22.125V12.4457ZM18.6243 12.9286V15.9464H19.59V12.9286H18.6243ZM19.1071 15.4636H7.03571V16.4293H19.1071V15.4636ZM6.55286 15.9464V21.9821H7.51857V15.9464H6.55286ZM7.03571 21.4993H1V22.465H7.03571V21.4993ZM7.03571 13.4114H16.0893V12.4457H7.03571V13.4114ZM16.5721 12.9286V3.875H15.6064V12.9286H16.5721ZM16.0893 3.39214H7.03571V4.35786H16.0893V3.39214ZM6.55286 3.875V12.9286H7.51857V3.875H6.55286ZM25.1429 21.9821H24.66V22.465H25.1429V21.9821ZM25.1429 0.857143V0.374286H24.66V0.857143H25.1429ZM43.25 0.857143H43.7329V0.374286H43.25V0.857143ZM43.25 3.875H42.7671V4.35786H43.25V3.875ZM46.2679 3.875H46.7507V3.39214H46.2679V3.875ZM46.2679 12.9286V13.4114H46.7507V12.9286H46.2679ZM40.2321 12.9286V12.4457H39.7493V12.9286H40.2321ZM40.2321 15.9464H39.7493V16.4293H40.2321V15.9464ZM43.25 15.9464H43.7329V15.4636H43.25V15.9464ZM43.25 18.9643H42.7671V19.4471H43.25V18.9643ZM46.2679 18.9643H46.7507V18.4814H46.2679V18.9643ZM46.2679 21.9821V22.465H46.7507V21.9821H46.2679ZM37.2143 21.9821H36.7314V22.465H37.2143V21.9821ZM37.2143 18.9643H37.6971V18.4814H37.2143V18.9643ZM34.1964 18.9643H33.7136V19.4471H34.1964V18.9643ZM34.1964 15.9464H34.6793V15.4636H34.1964V15.9464ZM31.1786 15.9464V15.4636H30.6957V15.9464H31.1786ZM31.1786 21.9821V22.465H31.6614V21.9821H31.1786ZM31.1786 12.9286H30.6957V13.4114H31.1786V12.9286ZM37.2143 12.9286V13.4114H37.6971V12.9286H37.2143ZM37.2143 9.91072V9.42786H36.7314V9.91072H37.2143ZM40.2321 9.91072V10.3936H40.715V9.91072H40.2321ZM40.2321 3.875H40.715V3.39214H40.2321V3.875ZM31.1786 3.875V3.39214H30.6957V3.875H31.1786ZM25.6257 21.9821V0.857143H24.66V21.9821H25.6257ZM25.1429 1.34H43.25V0.374286H25.1429V1.34ZM42.7671 0.857143V3.875H43.7329V0.857143H42.7671ZM43.25 4.35786H46.2679V3.39214H43.25V4.35786ZM45.785 3.875V12.9286H46.7507V3.875H45.785ZM46.2679 12.4457H40.2321V13.4114H46.2679V12.4457ZM39.7493 12.9286V15.9464H40.715V12.9286H39.7493ZM40.2321 16.4293H43.25V15.4636H40.2321V16.4293ZM42.7671 15.9464V18.9643H43.7329V15.9464H42.7671ZM43.25 19.4471H46.2679V18.4814H43.25V19.4471ZM45.785 18.9643V21.9821H46.7507V18.9643H45.785ZM46.2679 21.4993H37.2143V22.465H46.2679V21.4993ZM37.6971 21.9821V18.9643H36.7314V21.9821H37.6971ZM37.2143 18.4814H34.1964V19.4471H37.2143V18.4814ZM34.6793 18.9643V15.9464H33.7136V18.9643H34.6793ZM34.1964 15.4636H31.1786V16.4293H34.1964V15.4636ZM30.6957 15.9464V21.9821H31.6614V15.9464H30.6957ZM31.1786 21.4993H25.1429V22.465H31.1786V21.4993ZM31.1786 13.4114H37.2143V12.4457H31.1786V13.4114ZM37.6971 12.9286V9.91072H36.7314V12.9286H37.6971ZM37.2143 10.3936H40.2321V9.42786H37.2143V10.3936ZM40.715 9.91072V3.875H39.7493V9.91072H40.715ZM40.2321 3.39214H31.1786V4.35786H40.2321V3.39214ZM30.6957 3.875V12.9286H31.6614V3.875H30.6957ZM52.3036 21.9821H51.8207V22.465H52.3036V21.9821ZM52.3036 18.9643H52.7864V18.4814H52.3036V18.9643ZM49.2857 18.9643H48.8029V19.4471H49.2857V18.9643ZM49.2857 3.875V3.39214H48.8029V3.875H49.2857ZM52.3036 3.875V4.35786H52.7864V3.875H52.3036ZM52.3036 0.857143V0.374286H51.8207V0.857143H52.3036ZM67.3929 0.857143H67.8757V0.374286H67.3929V0.857143ZM67.3929 3.875H66.91V4.35786H67.3929V3.875ZM70.4107 3.875H70.8936V3.39214H70.4107V3.875ZM70.4107 18.9643V19.4471H70.8936V18.9643H70.4107ZM67.3929 18.9643V18.4814H66.91V18.9643H67.3929ZM67.3929 21.9821V22.465H67.8757V21.9821H67.3929ZM55.3214 18.9643H54.8386V19.4471H55.3214V18.9643ZM64.375 18.9643V19.4471H64.8579V18.9643H64.375ZM64.375 3.875H64.8579V3.39214H64.375V3.875ZM55.3214 3.875V3.39214H54.8386V3.875H55.3214ZM52.7864 21.9821V18.9643H51.8207V21.9821H52.7864ZM52.3036 18.4814H49.2857V19.4471H52.3036V18.4814ZM49.7686 18.9643V3.875H48.8029V18.9643H49.7686ZM49.2857 4.35786H52.3036V3.39214H49.2857V4.35786ZM52.7864 3.875V0.857143H51.8207V3.875H52.7864ZM52.3036 1.34H67.3929V0.374286H52.3036V1.34ZM66.91 0.857143V3.875H67.8757V0.857143H66.91ZM67.3929 4.35786H70.4107V3.39214H67.3929V4.35786ZM69.9279 3.875V18.9643H70.8936V3.875H69.9279ZM70.4107 18.4814H67.3929V19.4471H70.4107V18.4814ZM66.91 18.9643V21.9821H67.8757V18.9643H66.91ZM67.3929 21.4993H52.3036V22.465H67.3929V21.4993ZM55.3214 19.4471H64.375V18.4814H55.3214V19.4471ZM64.8579 18.9643V3.875H63.8921V18.9643H64.8579ZM64.375 3.39214H55.3214V4.35786H64.375V3.39214ZM54.8386 3.875V18.9643H55.8043V3.875H54.8386ZM79.4643 21.9821H78.9814V22.465H79.4643V21.9821ZM79.4643 18.9643H79.9471V18.4814H79.4643V18.9643ZM76.4464 18.9643H75.9636V19.4471H76.4464V18.9643ZM76.4464 15.9464H76.9293V15.4636H76.4464V15.9464ZM73.4286 15.9464H72.9457V16.4293H73.4286V15.9464ZM73.4286 6.89286V6.41H72.9457V6.89286H73.4286ZM76.4464 6.89286V7.37571H76.9293V6.89286H76.4464ZM76.4464 3.875V3.39214H75.9636V3.875H76.4464ZM79.4643 3.875V4.35786H79.9471V3.875H79.4643ZM79.4643 0.857143V0.374286H78.9814V0.857143H79.4643ZM91.5357 0.857143H92.0186V0.374286H91.5357V0.857143ZM91.5357 3.875H91.0529V4.35786H91.5357V3.875ZM94.5536 3.875H95.0364V3.39214H94.5536V3.875ZM94.5536 6.89286V7.37571H95.0364V6.89286H94.5536ZM88.5179 6.89286H88.035V7.37571H88.5179V6.89286ZM88.5179 3.875H89.0007V3.39214H88.5179V3.875ZM82.4821 3.875V3.39214H81.9993V3.875H82.4821ZM82.4821 6.89286V7.37571H82.965V6.89286H82.4821ZM79.4643 6.89286V6.41H78.9814V6.89286H79.4643ZM79.4643 15.9464H78.9814V16.4293H79.4643V15.9464ZM82.4821 15.9464H82.965V15.4636H82.4821V15.9464ZM82.4821 18.9643H81.9993V19.4471H82.4821V18.9643ZM88.5179 18.9643V19.4471H89.0007V18.9643H88.5179ZM88.5179 15.9464V15.4636H88.035V15.9464H88.5179ZM94.5536 15.9464H95.0364V15.4636H94.5536V15.9464ZM94.5536 18.9643V19.4471H95.0364V18.9643H94.5536ZM91.5357 18.9643V18.4814H91.0529V18.9643H91.5357ZM91.5357 21.9821V22.465H92.0186V21.9821H91.5357ZM79.9471 21.9821V18.9643H78.9814V21.9821H79.9471ZM79.4643 18.4814H76.4464V19.4471H79.4643V18.4814ZM76.9293 18.9643V15.9464H75.9636V18.9643H76.9293ZM76.4464 15.4636H73.4286V16.4293H76.4464V15.4636ZM73.9114 15.9464V6.89286H72.9457V15.9464H73.9114ZM73.4286 7.37571H76.4464V6.41H73.4286V7.37571ZM76.9293 6.89286V3.875H75.9636V6.89286H76.9293ZM76.4464 4.35786H79.4643V3.39214H76.4464V4.35786ZM79.9471 3.875V0.857143H78.9814V3.875H79.9471ZM79.4643 1.34H91.5357V0.374286H79.4643V1.34ZM91.0529 0.857143V3.875H92.0186V0.857143H91.0529ZM91.5357 4.35786H94.5536V3.39214H91.5357V4.35786ZM94.0707 3.875V6.89286H95.0364V3.875H94.0707ZM94.5536 6.41H88.5179V7.37571H94.5536V6.41ZM89.0007 6.89286V3.875H88.035V6.89286H89.0007ZM88.5179 3.39214H82.4821V4.35786H88.5179V3.39214ZM81.9993 3.875V6.89286H82.965V3.875H81.9993ZM82.4821 6.41H79.4643V7.37571H82.4821V6.41ZM78.9814 6.89286V15.9464H79.9471V6.89286H78.9814ZM79.4643 16.4293H82.4821V15.4636H79.4643V16.4293ZM81.9993 15.9464V18.9643H82.965V15.9464H81.9993ZM82.4821 19.4471H88.5179V18.4814H82.4821V19.4471ZM89.0007 18.9643V15.9464H88.035V18.9643H89.0007ZM88.5179 16.4293H94.5536V15.4636H88.5179V16.4293ZM94.0707 15.9464V18.9643H95.0364V15.9464H94.0707ZM94.5536 18.4814H91.5357V19.4471H94.5536V18.4814ZM91.0529 18.9643V21.9821H92.0186V18.9643H91.0529ZM91.5357 21.4993H79.4643V22.465H91.5357V21.4993ZM100.589 21.9821H100.106V22.465H100.589V21.9821ZM100.589 18.9643H101.072V18.4814H100.589V18.9643ZM97.5714 18.9643H97.0886V19.4471H97.5714V18.9643ZM97.5714 3.875V3.39214H97.0886V3.875H97.5714ZM100.589 3.875V4.35786H101.072V3.875H100.589ZM100.589 0.857143V0.374286H100.106V0.857143H100.589ZM115.679 0.857143H116.161V0.374286H115.679V0.857143ZM115.679 3.875H115.196V4.35786H115.679V3.875ZM118.696 3.875H119.179V3.39214H118.696V3.875ZM118.696 18.9643V19.4471H119.179V18.9643H118.696ZM115.679 18.9643V18.4814H115.196V18.9643H115.679ZM115.679 21.9821V22.465H116.161V21.9821H115.679ZM103.607 18.9643H103.124V19.4471H103.607V18.9643ZM112.661 18.9643V19.4471H113.144V18.9643H112.661ZM112.661 3.875H113.144V3.39214H112.661V3.875ZM103.607 3.875V3.39214H103.124V3.875H103.607ZM101.072 21.9821V18.9643H100.106V21.9821H101.072ZM100.589 18.4814H97.5714V19.4471H100.589V18.4814ZM98.0543 18.9643V3.875H97.0886V18.9643H98.0543ZM97.5714 4.35786H100.589V3.39214H97.5714V4.35786ZM101.072 3.875V0.857143H100.106V3.875H101.072ZM100.589 1.34H115.679V0.374286H100.589V1.34ZM115.196 0.857143V3.875H116.161V0.857143H115.196ZM115.679 4.35786H118.696V3.39214H115.679V4.35786ZM118.214 3.875V18.9643H119.179V3.875H118.214ZM118.696 18.4814H115.679V19.4471H118.696V18.4814ZM115.196 18.9643V21.9821H116.161V18.9643H115.196ZM115.679 21.4993H100.589V22.465H115.679V21.4993ZM103.607 19.4471H112.661V18.4814H103.607V19.4471ZM113.144 18.9643V3.875H112.178V18.9643H113.144ZM112.661 3.39214H103.607V4.35786H112.661V3.39214ZM103.124 3.875V18.9643H104.09V3.875H103.124ZM121.714 21.9821H121.231V22.465H121.714V21.9821ZM121.714 0.857143V0.374286H121.231V0.857143H121.714ZM127.75 0.857143H128.233V0.374286H127.75V0.857143ZM127.75 3.875H127.267V4.35786H127.75V3.875ZM130.768 3.875H131.251V3.39214H130.768V3.875ZM130.768 6.89286H130.285V7.37571H130.768V6.89286ZM133.786 6.89286V7.37571H134.269V6.89286H133.786ZM133.786 3.875V3.39214H133.303V3.875H133.786ZM136.804 3.875V4.35786H137.286V3.875H136.804ZM136.804 0.857143V0.374286H136.321V0.857143H136.804ZM142.839 0.857143H143.322V0.374286H142.839V0.857143ZM142.839 21.9821V22.465H143.322V21.9821H142.839ZM136.804 21.9821H136.321V22.465H136.804V21.9821ZM136.804 9.91072H137.286V9.42786H136.804V9.91072ZM133.786 9.91072V9.42786H133.303V9.91072H133.786ZM133.786 15.9464V16.4293H134.269V15.9464H133.786ZM130.768 15.9464H130.285V16.4293H130.768V15.9464ZM130.768 9.91072H131.251V9.42786H130.768V9.91072ZM127.75 9.91072V9.42786H127.267V9.91072H127.75ZM127.75 21.9821V22.465H128.233V21.9821H127.75ZM122.197 21.9821V0.857143H121.231V21.9821H122.197ZM121.714 1.34H127.75V0.374286H121.714V1.34ZM127.267 0.857143V3.875H128.233V0.857143H127.267ZM127.75 4.35786H130.768V3.39214H127.75V4.35786ZM130.285 3.875V6.89286H131.251V3.875H130.285ZM130.768 7.37571H133.786V6.41H130.768V7.37571ZM134.269 6.89286V3.875H133.303V6.89286H134.269ZM133.786 4.35786H136.804V3.39214H133.786V4.35786ZM137.286 3.875V0.857143H136.321V3.875H137.286ZM136.804 1.34H142.839V0.374286H136.804V1.34ZM142.356 0.857143V21.9821H143.322V0.857143H142.356ZM142.839 21.4993H136.804V22.465H142.839V21.4993ZM137.286 21.9821V9.91072H136.321V21.9821H137.286ZM136.804 9.42786H133.786V10.3936H136.804V9.42786ZM133.303 9.91072V15.9464H134.269V9.91072H133.303ZM133.786 15.4636H130.768V16.4293H133.786V15.4636ZM131.251 15.9464V9.91072H130.285V15.9464H131.251ZM130.768 9.42786H127.75V10.3936H130.768V9.42786ZM127.267 9.91072V21.9821H128.233V9.91072H127.267ZM127.75 21.4993H121.714V22.465H127.75V21.4993ZM145.857 21.9821H145.374V22.465H145.857V21.9821ZM145.857 0.857143V0.374286H145.374V0.857143H145.857ZM163.964 0.857143H164.447V0.374286H163.964V0.857143ZM163.964 3.875H163.481V4.35786H163.964V3.875ZM166.982 3.875H167.465V3.39214H166.982V3.875ZM166.982 12.9286V13.4114H167.465V12.9286H166.982ZM163.964 12.9286V12.4457H163.481V12.9286H163.964ZM163.964 15.9464V16.4293H164.447V15.9464H163.964ZM151.893 15.9464V15.4636H151.41V15.9464H151.893ZM151.893 21.9821V22.465H152.376V21.9821H151.893ZM151.893 12.9286H151.41V13.4114H151.893V12.9286ZM160.946 12.9286V13.4114H161.429V12.9286H160.946ZM160.946 3.875H161.429V3.39214H160.946V3.875ZM151.893 3.875V3.39214H151.41V3.875H151.893ZM146.34 21.9821V0.857143H145.374V21.9821H146.34ZM145.857 1.34H163.964V0.374286H145.857V1.34ZM163.481 0.857143V3.875H164.447V0.857143H163.481ZM163.964 4.35786H166.982V3.39214H163.964V4.35786ZM166.499 3.875V12.9286H167.465V3.875H166.499ZM166.982 12.4457H163.964V13.4114H166.982V12.4457ZM163.481 12.9286V15.9464H164.447V12.9286H163.481ZM163.964 15.4636H151.893V16.4293H163.964V15.4636ZM151.41 15.9464V21.9821H152.376V15.9464H151.41ZM151.893 21.4993H145.857V22.465H151.893V21.4993ZM151.893 13.4114H160.946V12.4457H151.893V13.4114ZM161.429 12.9286V3.875H160.464V12.9286H161.429ZM160.946 3.39214H151.893V4.35786H160.946V3.39214ZM151.41 3.875V12.9286H152.376V3.875H151.41Z" fill="#270DD0"/>
</g>
<defs>
<filter id="filter0_d_225_3856" x="0.0342857" y="0.857178" width="169.843" height="24.9879" filterUnits="userSpaceOnUse" color-interpolation-filters="sRGB">
<feFlood flood-opacity="0" result="BackgroundImageFix"/>
<feColorMatrix in="SourceAlpha" type="matrix" values="0 0 0 0 0 0 0 0 0 0 0 0 0 0 0 0 0 0 127 0" result="hardAlpha"/>
<feOffset dx="0.965714" dy="1.93143"/>
<feGaussianBlur stdDeviation="0.965714"/>
<feComposite in2="hardAlpha" operator="out"/>
<feColorMatrix type="matrix" values="0 0 0 0 0.137255 0 0 0 0 0.0196078 0 0 0 0 0.760784 0 0 0 1 0"/>
<feBlend mode="normal" in2="BackgroundImageFix" result="effect1_dropShadow_225_3856"/>
<feBlend mode="normal" in="SourceGraphic" in2="effect1_dropShadow_225_3856" result="shape"/>
</filter>
</defs>
</svg>
