<svg width="20" height="20" viewBox="0 0 20 20" fill="none" xmlns="http://www.w3.org/2000/svg">
<path d="M14.7122 11.2881C14.6194 11.1951 14.5092 11.1214 14.3879 11.0711C14.2666 11.0208 14.1365 10.9949 14.0052 10.9949C13.8739 10.9949 13.7438 11.0208 13.6225 11.0711C13.5012 11.1214 13.391 11.1951 13.2982 11.2881L11.7042 12.8821C10.9652 12.6621 9.58622 12.1621 8.71222 11.2881C7.83822 10.4141 7.33822 9.03507 7.11822 8.29607L8.71222 6.70207C8.80516 6.60929 8.8789 6.49908 8.92921 6.37777C8.97952 6.25645 9.00542 6.12641 9.00542 5.99507C9.00542 5.86374 8.97952 5.7337 8.92921 5.61238C8.8789 5.49107 8.80516 5.38086 8.71222 5.28807L4.71222 1.28807C4.61943 1.19513 4.50922 1.12139 4.38791 1.07108C4.26659 1.02077 4.13655 0.994873 4.00522 0.994873C3.87388 0.994873 3.74384 1.02077 3.62252 1.07108C3.50121 1.12139 3.391 1.19513 3.29822 1.28807L0.586217 4.00007C0.206217 4.38007 -0.00778346 4.90207 0.000216545 5.43507C0.0232165 6.85907 0.400216 11.8051 4.29822 15.7031C8.19622 19.6011 13.1422 19.9771 14.5662 20.0001H14.5942C15.1222 20.0001 15.6212 19.7921 15.9992 19.4141L18.7112 16.7021C18.8042 16.6093 18.8779 16.4991 18.9282 16.3778C18.9785 16.2565 19.0044 16.1264 19.0044 15.9951C19.0044 15.8637 18.9785 15.7337 18.9282 15.6124C18.8779 15.4911 18.8042 15.3809 18.7112 15.2881L14.7122 11.2881ZM14.5852 18.0001C13.3372 17.9791 9.06722 17.6441 5.71222 14.2881C2.34622 10.9221 2.02022 6.63707 2.00022 5.41407L4.00522 3.40907L6.59122 5.99507L5.29822 7.28807C5.18068 7.40552 5.09426 7.55041 5.04677 7.70964C4.99928 7.86887 4.99222 8.03743 5.02622 8.20007C5.05022 8.31507 5.63722 11.0421 7.29722 12.7021C8.95722 14.3621 11.6842 14.9491 11.7992 14.9731C11.9618 15.0078 12.1304 15.0013 12.2898 14.9539C12.4491 14.9066 12.594 14.82 12.7112 14.7021L14.0042 13.4091L16.5902 15.9951L14.5852 18.0001Z" fill="#D0A220"/>
<path d="M14.7939 3.79112L10.2969 8.28812L11.7109 9.70212L16.2079 5.20512L19.0039 8.00012V0.995117H11.9989L14.7939 3.79112Z" fill="#D0A220"/>
</svg>
