<svg width="30" height="30" viewBox="0 0 30 30" fill="none" xmlns="http://www.w3.org/2000/svg">
<path d="M15 13.125H16.875V15H15V13.125ZM18.75 13.125H20.625V15H18.75V13.125ZM22.5 13.125H24.375V15H22.5V13.125ZM15 16.875H16.875V18.75H15V16.875ZM18.75 16.875H20.625V18.75H18.75V16.875ZM22.5 16.875H24.375V18.75H22.5V16.875ZM15 20.625H16.875V22.5H15V20.625ZM18.75 20.625H20.625V22.5H18.75V20.625ZM22.5 20.625H24.375V22.5H22.5V20.625ZM15 9.375H24.375V11.25H15V9.375Z" fill="#D0A220"/>
<path d="M26.25 5.625H13.125V4.6875C13.1245 4.19037 12.9268 3.71375 12.5753 3.36222C12.2238 3.0107 11.7471 2.813 11.25 2.8125H7.5C7.00287 2.813 6.52625 3.0107 6.17472 3.36222C5.8232 3.71375 5.6255 4.19037 5.625 4.6875V5.625H3.75C3.25287 5.6255 2.77625 5.8232 2.42472 6.17472C2.0732 6.52625 1.8755 7.00287 1.875 7.5V24.375C1.8755 24.8721 2.0732 25.3488 2.42472 25.7003C2.77625 26.0518 3.25287 26.2495 3.75 26.25H26.25C26.7471 26.2495 27.2238 26.0518 27.5753 25.7003C27.9268 25.3488 28.1245 24.8721 28.125 24.375V7.5C28.1245 7.00287 27.9268 6.52625 27.5753 6.17472C27.2238 5.8232 26.7471 5.6255 26.25 5.625ZM7.5 4.6875H11.25V20.625H7.5V4.6875ZM26.25 24.375H3.75V7.5H5.625V20.625C5.6255 21.1221 5.8232 21.5988 6.17472 21.9503C6.52625 22.3018 7.00287 22.4995 7.5 22.5H11.25C11.7471 22.4995 12.2238 22.3018 12.5753 21.9503C12.9268 21.5988 13.1245 21.1221 13.125 20.625V7.5H26.25V24.375Z" fill="#D0A220"/>
</svg>
