<svg width="24" height="24" viewBox="0 0 24 24" fill="none" xmlns="http://www.w3.org/2000/svg">
<path d="M2.4903 6.23768C2.65627 6.35878 2.8489 6.41677 3.04012 6.41677C3.32905 6.41677 3.61377 6.28354 3.79656 6.03199C4.10043 5.61447 4.00834 5.02962 3.59086 4.72574C3.17334 4.42186 2.58849 4.51396 2.28461 4.93143C1.98069 5.34896 2.07278 5.93381 2.4903 6.23768Z" fill="#EEEEEE"/>
<path d="M1.18555 9.44454C1.28139 9.47588 1.37864 9.49082 1.47448 9.49082C1.86863 9.49082 2.23514 9.23979 2.36372 8.8447C2.52313 8.35331 2.25481 7.82598 1.76342 7.66605C1.27254 7.50664 0.744695 7.77543 0.585237 8.26636C0.425311 8.75771 0.69415 9.28508 1.18555 9.44454Z" fill="#EEEEEE"/>
<path d="M5.48636 3.97637C5.67711 3.97637 5.86974 3.91791 6.03617 3.79729C6.03571 3.79729 6.03571 3.79729 6.03571 3.79729C6.4537 3.49341 6.54579 2.90851 6.24187 2.49104C5.93799 2.07352 5.35309 1.98142 4.93562 2.28534C4.5181 2.58922 4.426 3.17365 4.72992 3.5916C4.91271 3.8431 5.19743 3.97637 5.48636 3.97637Z" fill="#EEEEEE"/>
<path d="M0.0182224 12.1516C0.0243121 12.1815 0.0317604 12.211 0.0406608 12.2404C0.0495612 12.2694 0.05982 12.2984 0.0715311 12.3264C0.0832421 12.3545 0.0963117 12.3826 0.110787 12.4092C0.124793 12.4359 0.14072 12.4625 0.157537 12.4878C0.174354 12.5135 0.192623 12.5383 0.212251 12.5616C0.23141 12.5855 0.252443 12.6084 0.273945 12.6299C0.295446 12.6514 0.318353 12.6724 0.342197 12.6916C0.365572 12.7107 0.390353 12.7294 0.41607 12.7463C0.441319 12.7631 0.467974 12.779 0.494628 12.7931C0.521282 12.8075 0.549342 12.8206 0.577402 12.8323C0.605461 12.844 0.634458 12.8543 0.663407 12.8632C0.692872 12.8721 0.722806 12.8795 0.752224 12.8856C0.782158 12.8917 0.812981 12.8964 0.842914 12.8992C0.873785 12.9024 0.904608 12.9038 0.93501 12.9038C0.965412 12.9038 0.996236 12.9024 1.02711 12.8992C1.05704 12.8963 1.08786 12.8917 1.1178 12.8856C1.14773 12.8796 1.17719 12.8721 1.20661 12.8632C1.23561 12.8543 1.26461 12.844 1.29262 12.8323C1.32068 12.8206 1.34874 12.8075 1.37539 12.7931C1.40252 12.779 1.4287 12.7631 1.45395 12.7463C1.47967 12.7295 1.50445 12.7107 1.52782 12.6916C1.55167 12.6724 1.57457 12.6514 1.59608 12.6299C1.61758 12.6084 1.63861 12.5855 1.65777 12.5616C1.67693 12.5383 1.69562 12.5135 1.71248 12.4878C1.7293 12.4625 1.74523 12.4359 1.75923 12.4092C1.77371 12.3826 1.78683 12.3545 1.79849 12.3264C1.81015 12.2984 1.82046 12.2694 1.82936 12.2404C1.83826 12.211 1.84571 12.1815 1.8518 12.1516C1.85789 12.1217 1.86257 12.0913 1.86534 12.0609C1.86861 12.0305 1.87002 11.9992 1.87002 11.9688C1.87002 11.9384 1.86861 11.9076 1.86534 11.8767C1.86253 11.8468 1.85784 11.816 1.8518 11.786C1.84571 11.7566 1.83826 11.7266 1.82936 11.6972C1.82046 11.6682 1.8102 11.6392 1.79849 11.6112C1.78678 11.5832 1.77371 11.5551 1.75923 11.5284C1.74523 11.5018 1.7293 11.4751 1.71248 11.4499C1.69567 11.4242 1.67693 11.3994 1.65777 11.376C1.63861 11.3522 1.61758 11.3293 1.59608 11.3078C1.57457 11.2863 1.55167 11.2652 1.52782 11.2461C1.50445 11.2264 1.47967 11.2082 1.45395 11.1914C1.4287 11.1745 1.40252 11.1586 1.37539 11.1446C1.34874 11.1301 1.32068 11.117 1.29262 11.1053C1.26456 11.0936 1.23556 11.0834 1.20661 11.0745C1.17715 11.0656 1.14768 11.0581 1.1178 11.052C1.08786 11.046 1.05704 11.0413 1.02711 11.0385C0.96588 11.0324 0.90414 11.0324 0.842914 11.0385C0.812981 11.0413 0.782158 11.046 0.752224 11.052C0.722759 11.0581 0.692826 11.0656 0.663407 11.0745C0.634411 11.0834 0.605414 11.0936 0.577402 11.1053C0.549342 11.1171 0.521282 11.1301 0.494628 11.1446C0.467974 11.1586 0.441319 11.1745 0.41607 11.1914C0.390353 11.2082 0.365572 11.2264 0.342197 11.2461C0.318353 11.2652 0.295446 11.2863 0.273945 11.3078C0.252443 11.3293 0.23141 11.3522 0.212251 11.376C0.192623 11.3994 0.174401 11.4242 0.157537 11.4499C0.14072 11.4751 0.124793 11.5018 0.110787 11.5284C0.0963117 11.5551 0.0831953 11.5832 0.0715311 11.6112C0.0598669 11.6393 0.0495612 11.6683 0.0406608 11.6972C0.0317604 11.7267 0.0243121 11.7566 0.0182224 11.786C0.0121326 11.816 0.00744823 11.8468 0.00468442 11.8767C0.00140533 11.9076 0 11.9384 0 11.9688C0 11.9992 0.00140533 12.0305 0.00468442 12.0609C0.00749507 12.0913 0.0121795 12.1217 0.0182224 12.1516Z" fill="#EEEEEE"/>
<path d="M8.56017 2.40734C8.65601 2.40734 8.75326 2.39287 8.84911 2.36153C9.3405 2.20212 9.6093 1.67475 9.44988 1.18335C9.29001 0.692469 8.76263 0.42363 8.27171 0.583041C7.78036 0.742452 7.51152 1.26982 7.67093 1.76122C7.79952 2.1563 8.16602 2.40734 8.56017 2.40734Z" fill="#EEEEEE"/>
<path d="M22.7984 14.4925C22.3075 14.3331 21.7797 14.6019 21.6202 15.0928C21.4608 15.5842 21.7291 16.1115 22.2205 16.2714C22.3163 16.3023 22.4141 16.3172 22.5099 16.3172C22.9041 16.3172 23.2706 16.0662 23.3987 15.6711C23.5586 15.1797 23.2898 14.6523 22.7984 14.4925Z" fill="#EEEEEE"/>
<path d="M12.946 22.9122C12.9455 22.907 12.9448 22.9018 12.9442 22.8966C12.9415 22.8728 12.9379 22.8488 12.9332 22.8251C12.9134 22.7215 12.8761 22.6244 12.8252 22.5361C12.817 22.5218 12.8085 22.5077 12.7995 22.4939C12.7936 22.4848 12.7876 22.4759 12.7815 22.467C12.7694 22.4496 12.7567 22.4327 12.7437 22.4164C12.7388 22.4105 12.734 22.4046 12.7291 22.3988C12.7141 22.3809 12.6982 22.3634 12.6819 22.3468C12.6783 22.3432 12.6748 22.3396 12.6711 22.3361C12.6546 22.3198 12.6372 22.304 12.6193 22.289C12.6132 22.2838 12.6072 22.2788 12.601 22.2739C12.5849 22.2608 12.5681 22.2483 12.5509 22.2364C12.5421 22.2302 12.5333 22.2243 12.5243 22.2185C12.5103 22.2094 12.496 22.2008 12.4815 22.1925C12.3935 22.1418 12.2968 22.1047 12.1937 22.0848C12.1695 22.08 12.1449 22.0763 12.1206 22.0736C12.0861 22.0698 12.0511 22.0674 12.0155 22.0674C8.4792 22.0674 5.19795 20.1913 3.38091 17.2083L5.51827 17.2051C6.03468 17.2043 6.45267 16.785 6.45192 16.2686C6.45113 15.7527 6.03262 15.335 5.51687 15.335C5.5164 15.335 5.51588 15.335 5.51541 15.335L2.78018 15.3391C2.77714 15.3391 2.77409 15.3391 2.77105 15.3391C2.03124 15.3391 1.33836 15.6247 0.819002 16.1441C0.287742 16.6753 -0.00311342 17.3885 2.51376e-05 18.1484V20.8518C2.51376e-05 21.3682 0.418672 21.7868 0.935082 21.7868C1.45149 21.7868 1.87014 21.3682 1.87014 20.8518V18.3222C2.79531 19.7982 4.03434 21.0593 5.50956 22.0163C7.44643 23.2729 9.6956 23.9371 12.014 23.9374C12.0145 23.9374 12.015 23.9375 12.0155 23.9375C12.0458 23.9375 12.0766 23.9361 12.1073 23.9328C12.1115 23.9324 12.1157 23.9317 12.1198 23.9312C12.1447 23.9285 12.1699 23.9247 12.1946 23.9198C12.2971 23.8999 12.3934 23.863 12.4809 23.8125C12.496 23.8039 12.5108 23.795 12.5254 23.7855C12.5338 23.78 12.542 23.7745 12.5502 23.7687C12.5681 23.7564 12.5856 23.7434 12.6022 23.7299C12.6078 23.7255 12.6132 23.721 12.6185 23.7164C12.6369 23.7011 12.6547 23.6849 12.6716 23.6682C12.6749 23.6649 12.6782 23.6617 12.6814 23.6584C12.698 23.6415 12.7142 23.6238 12.7295 23.6054C12.7341 23.5999 12.7387 23.5944 12.7432 23.5888C12.7565 23.5723 12.7694 23.555 12.7817 23.5374C12.7874 23.5292 12.793 23.521 12.7984 23.5126C12.8081 23.4977 12.8173 23.4824 12.8262 23.4669C12.8766 23.3791 12.9133 23.2827 12.9331 23.18C12.9378 23.1562 12.9415 23.132 12.9442 23.1078C12.9447 23.1027 12.9454 23.0977 12.9459 23.0926C12.949 23.0631 12.9504 23.0327 12.9504 23.0032C12.9504 23.0029 12.9505 23.0027 12.9505 23.0024C12.9505 23.0021 12.9504 23.0018 12.9504 23.0015C12.9505 22.972 12.9491 22.9421 12.946 22.9122Z" fill="#EEEEEE"/>
<path d="M23.0468 2.15062C22.5304 2.15062 22.1117 2.56926 22.1117 3.08567V5.61521C21.1866 4.1392 19.9475 2.87815 18.4723 1.92108C16.535 0.664297 14.2853 0 11.9664 0C11.9309 0 11.8961 0.00238905 11.8616 0.00623028C11.8368 0.00894724 11.8116 0.0127416 11.7869 0.0176603C11.6846 0.037569 11.5886 0.0744354 11.5012 0.124746C11.4856 0.1336 11.4703 0.142828 11.4554 0.152572C11.4234 0.173464 11.3928 0.196137 11.3638 0.22073C11.3449 0.236423 11.3267 0.253052 11.3094 0.27015C11.3067 0.272821 11.304 0.275444 11.3014 0.278114C11.2843 0.2954 11.2677 0.313622 11.252 0.3325C11.2476 0.337653 11.2433 0.342806 11.2391 0.348006C11.2254 0.364963 11.2122 0.382717 11.1996 0.400893C11.1942 0.408575 11.1889 0.416258 11.1839 0.424127C11.1741 0.439071 11.1649 0.454436 11.156 0.469941C11.1056 0.55754 11.0688 0.653804 11.0489 0.756346C11.0441 0.780424 11.0406 0.804924 11.0378 0.829095C11.0372 0.833827 11.0365 0.838417 11.036 0.843102C11.0327 0.874019 11.0312 0.904796 11.0312 0.935104C11.0312 0.965412 11.0327 0.996189 11.0359 1.02697C11.0364 1.03174 11.0372 1.03643 11.0377 1.04116C11.0405 1.06528 11.044 1.08969 11.0488 1.11363C11.0686 1.21626 11.1055 1.31262 11.156 1.40031C11.1649 1.41582 11.174 1.43114 11.1838 1.44603C11.1889 1.45395 11.1942 1.46168 11.1996 1.46941C11.212 1.4874 11.2251 1.50496 11.2387 1.52178C11.2431 1.52731 11.2477 1.53274 11.2522 1.53808C11.2676 1.55663 11.284 1.57457 11.3009 1.59167C11.3038 1.59462 11.3068 1.59757 11.3097 1.60053C11.3269 1.61748 11.345 1.63393 11.3636 1.64948C11.3688 1.65383 11.374 1.65819 11.3792 1.66241C11.396 1.67604 11.4137 1.68915 11.4318 1.70166C11.4399 1.70733 11.448 1.71281 11.4563 1.71815C11.4708 1.72761 11.4857 1.73661 11.5008 1.74523C11.5886 1.79582 11.6851 1.83278 11.7879 1.85269C11.8122 1.85751 11.837 1.86121 11.8614 1.86393C11.8661 1.86445 11.8707 1.86515 11.8752 1.86557C11.9058 1.86876 11.9362 1.87016 11.9663 1.87016C15.5026 1.87016 18.7838 3.74622 20.6009 6.72922L18.4636 6.73245C17.9472 6.73324 17.5292 7.15245 17.5299 7.66891C17.5307 8.18485 17.9492 8.60256 18.465 8.60256C18.4654 8.60256 18.4659 8.60256 18.4664 8.60256L21.2016 8.59844C21.2047 8.59844 21.2077 8.59844 21.2107 8.59844C21.9506 8.59844 22.6435 8.31278 23.1629 7.79347C23.6941 7.26221 23.985 6.54901 23.9818 5.78915V3.08567C23.9818 2.56926 23.5632 2.15062 23.0468 2.15062Z" fill="#EEEEEE"/>
<path d="M21.4932 17.6996C21.0757 17.3957 20.4908 17.4878 20.1869 17.9053C19.883 18.3228 19.9751 18.9077 20.3926 19.2116C20.5586 19.3322 20.7512 19.3906 20.942 19.3906C21.2309 19.3906 21.5156 19.257 21.6989 19.0059C22.0028 18.5884 21.9107 18.0035 21.4932 17.6996Z" fill="#EEEEEE"/>
<path d="M23.9651 11.7858C23.959 11.7563 23.9515 11.7264 23.9426 11.697C23.9337 11.668 23.9235 11.639 23.9118 11.611C23.9001 11.583 23.887 11.5549 23.8725 11.5282C23.8585 11.5011 23.8426 11.4749 23.8258 11.4496C23.8089 11.4239 23.7902 11.3991 23.7711 11.3758C23.7519 11.3519 23.7309 11.329 23.7094 11.3075C23.6879 11.286 23.665 11.265 23.6411 11.2458C23.6177 11.2262 23.593 11.208 23.5672 11.1911C23.542 11.1743 23.5153 11.1584 23.4887 11.1444C23.462 11.1299 23.434 11.1168 23.4059 11.1051C23.3778 11.0934 23.3488 11.0831 23.3199 11.0742C23.2904 11.0653 23.2605 11.0579 23.2311 11.0518C23.2011 11.0457 23.1703 11.041 23.1404 11.0383C23.0792 11.0322 23.0174 11.0322 22.9562 11.0383C22.9263 11.0411 22.8954 11.0458 22.8655 11.0518C22.836 11.0579 22.8062 11.0653 22.7767 11.0742C22.7477 11.0831 22.7187 11.0934 22.6907 11.1051C22.6627 11.1168 22.6346 11.1299 22.6079 11.1444C22.5813 11.1584 22.5546 11.1743 22.5294 11.1911C22.5036 11.2079 22.4789 11.2262 22.4555 11.2458C22.4316 11.265 22.4087 11.286 22.3872 11.3075C22.3657 11.329 22.3447 11.3519 22.3255 11.3758C22.3064 11.3991 22.2877 11.4239 22.2708 11.4496C22.254 11.4749 22.2381 11.5011 22.2241 11.5282C22.2096 11.5549 22.1965 11.5829 22.1848 11.611C22.1731 11.639 22.1628 11.668 22.1539 11.697C22.145 11.7264 22.1376 11.7564 22.1315 11.7858C22.1254 11.8157 22.1207 11.8466 22.118 11.8765C22.1147 11.9074 22.1133 11.9382 22.1133 11.9686C22.1133 11.999 22.1147 12.0298 22.118 12.0607C22.1208 12.0906 22.1255 12.1214 22.1315 12.1514C22.1376 12.1808 22.145 12.2107 22.1539 12.2402C22.1628 12.2692 22.1731 12.2982 22.1848 12.3262C22.1965 12.3542 22.2096 12.3823 22.2241 12.409C22.2381 12.4356 22.254 12.4623 22.2708 12.4875C22.2876 12.5132 22.3064 12.538 22.3255 12.5614C22.3447 12.5852 22.3657 12.6081 22.3872 12.6296C22.4087 12.6511 22.4316 12.6722 22.4555 12.6913C22.4789 12.7105 22.5036 12.7292 22.5294 12.7461C22.5546 12.7629 22.5813 12.7788 22.6079 12.7928C22.6346 12.8073 22.6626 12.8204 22.6907 12.8321C22.7187 12.8437 22.7477 12.854 22.7767 12.8629C22.8062 12.8718 22.8361 12.8793 22.8655 12.8854C22.8954 12.8915 22.9263 12.8961 22.9562 12.8989C22.9871 12.9022 23.0179 12.9036 23.0483 12.9036C23.0787 12.9036 23.1095 12.9022 23.1404 12.8989C23.1703 12.8961 23.2011 12.8914 23.2311 12.8854C23.2605 12.8793 23.2905 12.8718 23.3199 12.8629C23.3489 12.854 23.3779 12.8438 23.4059 12.8321C23.4339 12.8204 23.462 12.8073 23.4887 12.7928C23.5153 12.7788 23.542 12.7629 23.5672 12.7461C23.593 12.7292 23.6177 12.7105 23.6411 12.6913C23.665 12.6722 23.6879 12.6511 23.7094 12.6296C23.7309 12.6081 23.7519 12.5852 23.7711 12.5614C23.7902 12.538 23.8089 12.5132 23.8258 12.4875C23.8426 12.4623 23.8585 12.4356 23.8725 12.409C23.887 12.3823 23.9001 12.3543 23.9118 12.3262C23.9234 12.2981 23.9337 12.2691 23.9426 12.2402C23.9515 12.2107 23.959 12.1808 23.9651 12.1514C23.9712 12.1214 23.9759 12.0906 23.9786 12.0607C23.9819 12.0298 23.9833 11.999 23.9833 11.9686C23.9833 11.9382 23.9819 11.9074 23.9786 11.8765C23.9758 11.8466 23.9712 11.8157 23.9651 11.7858Z" fill="#EEEEEE"/>
<path d="M17.9517 20.14C17.5337 20.4439 17.4416 21.0288 17.7455 21.4463C17.9288 21.6978 18.2135 21.8311 18.5024 21.8311C18.6932 21.8311 18.8858 21.7731 19.0518 21.652C19.4693 21.3481 19.5614 20.7632 19.2579 20.3457C18.9541 19.9283 18.3692 19.8362 17.9517 20.14Z" fill="#EEEEEE"/>
<path d="M15.135 21.576C14.6436 21.7354 14.3748 22.2627 14.5342 22.7541C14.6628 23.1492 15.0293 23.4003 15.4235 23.4007C15.5193 23.4007 15.6166 23.3858 15.7124 23.3544C16.2038 23.195 16.4726 22.6677 16.3132 22.1763C16.1538 21.6854 15.6259 21.4166 15.135 21.576Z" fill="#EEEEEE"/>
</svg>
