<svg width="24" height="25" viewBox="0 0 24 25" fill="none" xmlns="http://www.w3.org/2000/svg">
<path d="M2.49812 6.68739C2.66409 6.80848 2.85671 6.86648 3.04793 6.86648C3.33686 6.86648 3.62158 6.73325 3.80437 6.4817C4.10825 6.06418 4.01615 5.47933 3.59868 5.17545C3.18115 4.87157 2.5963 4.96366 2.29242 5.38114C1.9885 5.79866 2.0806 6.38351 2.49812 6.68739Z" fill="#5E64A9"/>
<path d="M1.19336 9.89425C1.2892 9.92559 1.38645 9.94053 1.48229 9.94053C1.87644 9.94053 2.24295 9.68949 2.37154 9.29441C2.53095 8.80301 2.26262 8.27569 1.77123 8.11576C1.28035 7.95635 0.752508 8.22514 0.59305 8.71607C0.433124 9.20742 0.701963 9.73479 1.19336 9.89425Z" fill="#5E64A9"/>
<path d="M5.49418 4.42608C5.68493 4.42608 5.87755 4.36762 6.04399 4.24699C6.04352 4.24699 6.04352 4.24699 6.04352 4.24699C6.46151 3.94312 6.55361 3.35822 6.24968 2.94074C5.9458 2.52322 5.36091 2.43113 4.94343 2.73505C4.52591 3.03893 4.43381 3.62336 4.73774 4.0413C4.92052 4.29281 5.20524 4.42608 5.49418 4.42608Z" fill="#5E64A9"/>
<path d="M0.0260349 12.6013C0.0321246 12.6313 0.0395729 12.6607 0.0484733 12.6901C0.0573737 12.7191 0.0676325 12.7481 0.0793436 12.7761C0.0910546 12.8042 0.104124 12.8323 0.118599 12.8589C0.132605 12.8856 0.148532 12.9122 0.16535 12.9375C0.182167 12.9632 0.200436 12.988 0.220064 13.0114C0.239223 13.0352 0.260256 13.0581 0.281757 13.0796C0.303259 13.1011 0.326166 13.1221 0.350009 13.1413C0.373385 13.1605 0.398165 13.1791 0.423883 13.196C0.449132 13.2128 0.475786 13.2288 0.50244 13.2428C0.529095 13.2572 0.557154 13.2704 0.585214 13.282C0.613274 13.2937 0.64227 13.304 0.67122 13.3129C0.700685 13.3218 0.730618 13.3292 0.760037 13.3353C0.78997 13.3414 0.820794 13.3461 0.850727 13.3489C0.881597 13.3521 0.912421 13.3535 0.942823 13.3535C0.973224 13.3535 1.00405 13.3521 1.03492 13.3489C1.06485 13.3461 1.09568 13.3414 1.12561 13.3353C1.15554 13.3293 1.18501 13.3218 1.21443 13.3129C1.24342 13.304 1.27242 13.2937 1.30043 13.282C1.32849 13.2703 1.35655 13.2572 1.3832 13.2428C1.41033 13.2288 1.43651 13.2128 1.46176 13.196C1.48748 13.1792 1.51226 13.1605 1.53564 13.1413C1.55948 13.1221 1.58239 13.1011 1.60389 13.0796C1.62539 13.0581 1.64642 13.0352 1.66558 13.0114C1.68474 12.988 1.70343 12.9632 1.7203 12.9375C1.73711 12.9122 1.75304 12.8856 1.76705 12.8589C1.78152 12.8323 1.79464 12.8042 1.8063 12.7761C1.81797 12.7481 1.82827 12.7191 1.83717 12.6901C1.84607 12.6607 1.85352 12.6312 1.85961 12.6013C1.8657 12.5714 1.87038 12.541 1.87315 12.5106C1.87643 12.4802 1.87783 12.4489 1.87783 12.4185C1.87783 12.3881 1.87643 12.3573 1.87315 12.3264C1.87034 12.2965 1.86565 12.2657 1.85961 12.2358C1.85352 12.2063 1.84607 12.1764 1.83717 12.1469C1.82827 12.1179 1.81801 12.0889 1.8063 12.0609C1.79459 12.0329 1.78152 12.0048 1.76705 11.9782C1.75304 11.9515 1.73711 11.9248 1.7203 11.8996C1.70348 11.8739 1.68474 11.8491 1.66558 11.8257C1.64642 11.8019 1.62539 11.779 1.60389 11.7575C1.58239 11.736 1.55948 11.7149 1.53564 11.6958C1.51226 11.6761 1.48748 11.6579 1.46176 11.6411C1.43651 11.6242 1.41033 11.6083 1.3832 11.5943C1.35655 11.5798 1.32849 11.5667 1.30043 11.5551C1.27237 11.5433 1.24337 11.5331 1.21443 11.5242C1.18496 11.5153 1.1555 11.5078 1.12561 11.5017C1.09568 11.4957 1.06485 11.491 1.03492 11.4882C0.973693 11.4821 0.911952 11.4821 0.850727 11.4882C0.820794 11.491 0.78997 11.4957 0.760037 11.5017C0.730572 11.5078 0.700638 11.5153 0.67122 11.5242C0.642223 11.5331 0.613227 11.5433 0.585214 11.5551C0.557154 11.5668 0.529095 11.5798 0.50244 11.5943C0.475786 11.6083 0.449132 11.6242 0.423883 11.6411C0.398165 11.6579 0.373385 11.6761 0.350009 11.6958C0.326166 11.7149 0.303259 11.736 0.281757 11.7575C0.260256 11.779 0.239223 11.8019 0.220064 11.8257C0.200436 11.8491 0.182213 11.8739 0.16535 11.8996C0.148532 11.9248 0.132605 11.9515 0.118599 11.9782C0.104124 12.0048 0.0910078 12.0329 0.0793436 12.0609C0.0676794 12.089 0.0573737 12.118 0.0484733 12.1469C0.0395729 12.1764 0.0321246 12.2063 0.0260349 12.2358C0.0199451 12.2657 0.0152607 12.2965 0.0124969 12.3264C0.00921783 12.3573 0.0078125 12.3881 0.0078125 12.4185C0.0078125 12.4489 0.00921783 12.4802 0.0124969 12.5106C0.0153076 12.541 0.019992 12.5714 0.0260349 12.6013Z" fill="#5E64A9"/>
<path d="M8.56798 2.85705C8.66383 2.85705 8.76108 2.84257 8.85692 2.81124C9.34832 2.65182 9.61711 2.12445 9.4577 1.63306C9.29782 1.14218 8.77045 0.873337 8.27952 1.03275C7.78817 1.19216 7.51933 1.71953 7.67874 2.21093C7.80733 2.60601 8.17384 2.85705 8.56798 2.85705Z" fill="#5E64A9"/>
<path d="M22.8062 14.9422C22.3153 14.7828 21.7875 15.0516 21.628 15.5425C21.4686 16.0339 21.7369 16.5612 22.2283 16.7211C22.3242 16.752 22.4219 16.7669 22.5177 16.7669C22.9119 16.7669 23.2784 16.5159 23.4065 16.1208C23.5664 15.6294 23.2976 15.1021 22.8062 14.9422Z" fill="#5E64A9"/>
<path d="M12.9538 23.362C12.9533 23.3567 12.9526 23.3516 12.952 23.3464C12.9493 23.3226 12.9457 23.2985 12.9411 23.2748C12.9212 23.1712 12.8839 23.0741 12.833 22.9858C12.8248 22.9715 12.8163 22.9575 12.8074 22.9436C12.8015 22.9345 12.7955 22.9256 12.7893 22.9167C12.7772 22.8993 12.7645 22.8824 12.7515 22.8662C12.7466 22.8602 12.7418 22.8543 12.7369 22.8485C12.7219 22.8306 12.706 22.8131 12.6897 22.7965C12.6861 22.7929 12.6826 22.7893 12.6789 22.7858C12.6624 22.7695 12.645 22.7537 12.6271 22.7387C12.6211 22.7335 12.615 22.7285 12.6088 22.7236C12.5927 22.7105 12.5759 22.698 12.5587 22.6861C12.5499 22.6799 12.5411 22.674 12.5321 22.6682C12.5181 22.6591 12.5039 22.6505 12.4893 22.6422C12.4013 22.5915 12.3046 22.5544 12.2015 22.5345C12.1773 22.5297 12.1527 22.526 12.1284 22.5233C12.0939 22.5195 12.0589 22.5171 12.0233 22.5171C8.48701 22.5171 5.20576 20.641 3.38872 17.658L5.52608 17.6548C6.04249 17.654 6.46049 17.2347 6.45974 16.7183C6.45894 16.2024 6.04043 15.7847 5.52468 15.7847C5.52421 15.7847 5.52369 15.7847 5.52323 15.7847L2.78799 15.7888C2.78495 15.7888 2.7819 15.7888 2.77886 15.7888C2.03905 15.7888 1.34618 16.0744 0.826815 16.5938C0.295555 17.125 0.00469908 17.8382 0.00783764 18.5981V21.3015C0.00783764 21.8179 0.426484 22.2365 0.942895 22.2365C1.45931 22.2365 1.87795 21.8179 1.87795 21.3015V18.7719C2.80312 20.2479 4.04215 21.509 5.51737 22.466C7.45424 23.7226 9.70342 24.3868 12.0218 24.3871C12.0223 24.3871 12.0228 24.3872 12.0233 24.3872C12.0536 24.3872 12.0844 24.3858 12.1151 24.3825C12.1194 24.3821 12.1235 24.3814 12.1276 24.381C12.1525 24.3782 12.1777 24.3744 12.2024 24.3695C12.305 24.3496 12.4012 24.3127 12.4887 24.2623C12.5038 24.2536 12.5187 24.2447 12.5332 24.2352C12.5416 24.2297 12.5498 24.2242 12.5581 24.2185C12.5759 24.2061 12.5934 24.1931 12.6101 24.1796C12.6156 24.1752 12.621 24.1707 12.6264 24.1661C12.6447 24.1508 12.6625 24.1346 12.6794 24.1179C12.6827 24.1146 12.686 24.1114 12.6892 24.1081C12.7058 24.0912 12.722 24.0735 12.7373 24.0552C12.7419 24.0496 12.7466 24.0441 12.7511 24.0385C12.7644 24.022 12.7772 24.0047 12.7895 23.9871C12.7952 23.9789 12.8008 23.9707 12.8062 23.9623C12.8159 23.9474 12.8252 23.9321 12.834 23.9166C12.8844 23.8288 12.9211 23.7324 12.9409 23.6297C12.9456 23.6059 12.9493 23.5817 12.952 23.5575C12.9525 23.5524 12.9532 23.5474 12.9537 23.5423C12.9568 23.5128 12.9582 23.4824 12.9582 23.4529C12.9582 23.4526 12.9583 23.4524 12.9583 23.4521C12.9583 23.4518 12.9582 23.4515 12.9582 23.4512C12.9583 23.4217 12.9569 23.3918 12.9538 23.362Z" fill="#5E64A9"/>
<path d="M23.0546 2.60032C22.5382 2.60032 22.1195 3.01897 22.1195 3.53538V6.06492C21.1944 4.58891 19.9553 3.32786 18.4801 2.37079C16.5428 1.114 14.2931 0.449707 11.9742 0.449707C11.9387 0.449707 11.9039 0.452096 11.8694 0.455937C11.8446 0.458654 11.8194 0.462449 11.7948 0.467367C11.6924 0.487276 11.5964 0.524142 11.509 0.574453C11.4935 0.583307 11.4781 0.592535 11.4632 0.602279C11.4312 0.623171 11.4007 0.645844 11.3716 0.670437C11.3527 0.68613 11.3345 0.702759 11.3172 0.719858C11.3145 0.722528 11.3118 0.725151 11.3092 0.727821C11.2921 0.745107 11.2755 0.763329 11.2598 0.782207C11.2554 0.78736 11.2511 0.792513 11.2469 0.797713C11.2332 0.81467 11.22 0.832424 11.2074 0.8506C11.202 0.858282 11.1967 0.865965 11.1917 0.873834C11.1819 0.888778 11.1727 0.904143 11.1639 0.919648C11.1135 1.00725 11.0766 1.10351 11.0567 1.20605C11.0519 1.23013 11.0484 1.25463 11.0456 1.2788C11.0451 1.28353 11.0443 1.28812 11.0438 1.29281C11.0405 1.32373 11.0391 1.3545 11.0391 1.38481C11.0391 1.41512 11.0405 1.4459 11.0437 1.47667C11.0442 1.48145 11.045 1.48613 11.0455 1.49087C11.0483 1.51499 11.0519 1.5394 11.0566 1.56333C11.0764 1.66597 11.1134 1.76233 11.1638 1.85002C11.1727 1.86553 11.1818 1.88084 11.1916 1.89574C11.1967 1.90366 11.202 1.91139 11.2074 1.91912C11.2198 1.9371 11.233 1.95467 11.2465 1.97149C11.2509 1.97702 11.2555 1.98245 11.26 1.98779C11.2754 2.00634 11.2918 2.02428 11.3087 2.04138C11.3116 2.04433 11.3146 2.04728 11.3176 2.05023C11.3347 2.06719 11.3528 2.08363 11.3714 2.09918C11.3766 2.10354 11.3818 2.1079 11.387 2.11211C11.4038 2.12575 11.4215 2.13886 11.4396 2.15137C11.4477 2.15704 11.4558 2.16252 11.4641 2.16786C11.4786 2.17732 11.4935 2.18632 11.5086 2.19493C11.5964 2.24553 11.6929 2.28249 11.7957 2.3024C11.82 2.30722 11.8448 2.31092 11.8692 2.31364C11.8739 2.31415 11.8785 2.31486 11.8831 2.31528C11.9136 2.31846 11.944 2.31987 11.9741 2.31987C15.5104 2.31987 18.7916 4.19593 20.6087 7.17892L18.4714 7.18216C17.955 7.18295 17.537 7.60216 17.5377 8.11862C17.5385 8.63456 17.957 9.05227 18.4728 9.05227C18.4732 9.05227 18.4738 9.05227 18.4742 9.05227L21.2095 9.04815C21.2125 9.04815 21.2155 9.04815 21.2185 9.04815C21.9584 9.04815 22.6513 8.76249 23.1707 8.24318C23.7019 7.71192 23.9928 6.99871 23.9897 6.23885V3.53538C23.9897 3.01897 23.5711 2.60032 23.0546 2.60032Z" fill="#5E64A9"/>
<path d="M21.501 18.1493C21.0835 17.8454 20.4986 17.9375 20.1947 18.355C19.8909 18.7725 19.983 19.3574 20.4004 19.6613C20.5664 19.7819 20.759 19.8404 20.9498 19.8404C21.2387 19.8404 21.5234 19.7067 21.7067 19.4556C22.0106 19.0381 21.9185 18.4532 21.501 18.1493Z" fill="#5E64A9"/>
<path d="M23.9729 12.2355C23.9668 12.206 23.9594 12.1761 23.9505 12.1467C23.9416 12.1177 23.9313 12.0887 23.9196 12.0607C23.9079 12.0327 23.8948 12.0046 23.8803 11.9779C23.8663 11.9508 23.8504 11.9246 23.8336 11.8994C23.8168 11.8736 23.798 11.8489 23.7789 11.8255C23.7597 11.8016 23.7387 11.7787 23.7172 11.7572C23.6957 11.7357 23.6728 11.7147 23.6489 11.6955C23.6255 11.6759 23.6008 11.6577 23.575 11.6408C23.5498 11.624 23.5231 11.6081 23.4965 11.5941C23.4698 11.5796 23.4418 11.5665 23.4137 11.5548C23.3857 11.5431 23.3567 11.5328 23.3277 11.5239C23.2982 11.515 23.2683 11.5076 23.2389 11.5015C23.209 11.4954 23.1781 11.4907 23.1482 11.488C23.087 11.4819 23.0252 11.4819 22.964 11.488C22.9341 11.4908 22.9033 11.4955 22.8733 11.5015C22.8439 11.5076 22.814 11.515 22.7845 11.5239C22.7555 11.5328 22.7265 11.5431 22.6985 11.5548C22.6705 11.5665 22.6424 11.5796 22.6157 11.5941C22.5891 11.6081 22.5624 11.624 22.5372 11.6408C22.5114 11.6576 22.4867 11.6759 22.4633 11.6955C22.4394 11.7147 22.4165 11.7357 22.395 11.7572C22.3735 11.7787 22.3525 11.8016 22.3333 11.8255C22.3142 11.8489 22.2955 11.8736 22.2786 11.8994C22.2618 11.9246 22.2459 11.9508 22.2319 11.9779C22.2174 12.0046 22.2043 12.0326 22.1926 12.0607C22.181 12.0887 22.1707 12.1177 22.1618 12.1467C22.1529 12.1762 22.1454 12.2061 22.1393 12.2355C22.1332 12.2654 22.1285 12.2963 22.1258 12.3262C22.1225 12.3571 22.1211 12.3879 22.1211 12.4183C22.1211 12.4487 22.1225 12.4795 22.1258 12.5104C22.1286 12.5403 22.1333 12.5711 22.1393 12.6011C22.1454 12.6305 22.1529 12.6604 22.1618 12.6899C22.1707 12.7189 22.1809 12.7479 22.1926 12.7759C22.2043 12.8039 22.2174 12.832 22.2319 12.8587C22.2459 12.8853 22.2618 12.912 22.2786 12.9372C22.2954 12.9629 22.3142 12.9877 22.3333 13.0111C22.3525 13.0349 22.3735 13.0579 22.395 13.0794C22.4165 13.1009 22.4394 13.1219 22.4633 13.1411C22.4867 13.1602 22.5114 13.1789 22.5372 13.1958C22.5624 13.2126 22.5891 13.2285 22.6157 13.2425C22.6424 13.257 22.6704 13.2701 22.6985 13.2818C22.7266 13.2934 22.7556 13.3037 22.7845 13.3126C22.814 13.3215 22.8439 13.329 22.8733 13.3351C22.9033 13.3412 22.9341 13.3459 22.964 13.3486C22.9949 13.3519 23.0257 13.3533 23.0561 13.3533C23.0865 13.3533 23.1173 13.3519 23.1482 13.3486C23.1781 13.3458 23.209 13.3411 23.2389 13.3351C23.2684 13.329 23.2983 13.3215 23.3277 13.3126C23.3567 13.3037 23.3857 13.2935 23.4137 13.2818C23.4417 13.2701 23.4698 13.257 23.4965 13.2425C23.5231 13.2285 23.5498 13.2126 23.575 13.1958C23.6008 13.1789 23.6255 13.1602 23.6489 13.1411C23.6728 13.1219 23.6957 13.1009 23.7172 13.0794C23.7387 13.0579 23.7597 13.0349 23.7789 13.0111C23.798 12.9877 23.8167 12.9629 23.8336 12.9372C23.8504 12.912 23.8663 12.8853 23.8803 12.8587C23.8948 12.832 23.9079 12.804 23.9196 12.7759C23.9312 12.7478 23.9416 12.7188 23.9505 12.6899C23.9594 12.6604 23.9668 12.6305 23.9729 12.6011C23.979 12.5711 23.9837 12.5403 23.9864 12.5104C23.9897 12.4795 23.9911 12.4487 23.9911 12.4183C23.9911 12.3879 23.9897 12.3571 23.9864 12.3262C23.9836 12.2963 23.979 12.2654 23.9729 12.2355Z" fill="#5E64A9"/>
<path d="M17.9595 20.5898C17.5415 20.8936 17.4494 21.4785 17.7533 21.896C17.9366 22.1476 18.2213 22.2808 18.5102 22.2808C18.701 22.2808 18.8936 22.2228 19.0596 22.1017C19.4771 21.7978 19.5692 21.2129 19.2657 20.7954C18.9619 20.378 18.377 20.2859 17.9595 20.5898Z" fill="#5E64A9"/>
<path d="M15.1428 22.0257C14.6514 22.1851 14.3826 22.7125 14.542 23.2038C14.6706 23.5989 15.0371 23.85 15.4313 23.8504C15.5271 23.8504 15.6244 23.8355 15.7202 23.8042C16.2116 23.6447 16.4804 23.1174 16.321 22.626C16.1616 22.1351 15.6337 21.8663 15.1428 22.0257Z" fill="#5E64A9"/>
</svg>
