<svg width="306" height="47" viewBox="0 0 306 47" fill="none" xmlns="http://www.w3.org/2000/svg">
<g clip-path="url(#clip0_403_7520)">
<path d="M246.023 9.38306V37.8942H252.123V26.2458H265.124V37.8942H271.224V9.38306H265.124V21.0737H252.123V9.38306H246.023Z" fill="#21A049"/>
<path d="M284.962 26.3962H288.755L298.116 37.8941H306.001L293.522 23.151L304.426 9.38538H297.415L288.328 21.6024H284.962V9.38538H278.859V37.8941H284.962V26.3962Z" fill="#21A049"/>
<path d="M235.544 37.8918H241.965L230.057 9.38306H223.836L211.641 37.8918H217.82L220.271 32.1511H233.235L235.544 37.8918ZM222.095 27.3949L226.82 15.9486L231.261 27.3949H222.095Z" fill="#21A049"/>
<path d="M198.882 20.4957H191.459V14.1298H207.412L207.426 9.38306H185.359V37.8918H198.095C205.239 37.8918 209.337 34.6278 209.337 28.9364C209.337 23.4941 205.623 20.4957 198.882 20.4957ZM197.82 33.1451H191.459V25.2424H197.82C201.692 25.2424 203.496 26.5654 203.496 29.1949C203.496 31.8808 201.585 33.1451 197.82 33.1451Z" fill="#21A049"/>
<path d="M136.825 14.1298L143.209 9.38306H121.836V37.8942H143.209V33.1474H127.936V25.8487H140.965V21.1019H127.936V14.1298H136.825Z" fill="#21A049"/>
<path d="M105.703 20.4957H98.2795V14.1298H110.127L116.514 9.38306H92.1797V37.8942H104.915C112.059 37.8942 116.155 34.6278 116.155 28.9364C116.155 23.4941 112.443 20.4957 105.703 20.4957ZM104.64 33.1451H98.2795V25.2424H104.64C108.51 25.2424 110.314 26.5654 110.314 29.1949C110.314 31.8808 108.405 33.1451 104.64 33.1451Z" fill="#21A049"/>
<path d="M160.526 9.38306H148.891V37.8918H154.988V29.8176H160.526C167.952 29.8176 172.565 25.8792 172.565 19.5863C172.565 13.2933 167.952 9.38306 160.526 9.38306ZM160.391 25.0709H154.988V14.1298H160.391C164.301 14.1298 166.449 16.0732 166.449 19.6003C166.449 23.1275 164.299 25.0709 160.391 25.0709Z" fill="#21A049"/>
<path d="M81.7062 31.7211C80.0898 32.6042 78.2787 33.0616 76.4405 33.0511C70.9418 33.0511 66.9506 29.0916 66.9506 23.6375C66.9506 18.1834 70.9418 14.2356 76.4405 14.2356C78.428 14.2065 80.3724 14.8209 81.9881 15.9886L86.3638 12.7364L86.0749 12.4803C83.5119 10.2173 80.1078 9.02124 76.2052 9.02124C71.9716 9.02124 68.1295 10.4594 65.3872 13.0748C62.6448 15.6902 61.1094 19.403 61.1094 23.4918C61.1094 27.5806 62.6239 31.3545 65.3732 34.0663C68.1226 36.7781 71.9623 38.282 76.1656 38.282C80.5622 38.282 84.4019 36.7358 87.0068 33.923L83.0576 30.9879L81.7062 31.7211Z" fill="#21A049"/>
<path d="M46.6023 23.4989C46.6027 22.0876 46.478 20.6791 46.2295 19.2902L41.2131 23.0172C41.2131 23.1769 41.2131 23.3391 41.2131 23.4871C41.2186 27.5308 39.8809 31.4598 37.4135 34.647C34.9462 37.8343 31.4913 40.0962 27.6004 41.0716C23.7094 42.0471 19.6066 41.68 15.9467 40.0288C12.2868 38.3777 9.2808 35.5377 7.40839 31.962C5.53597 28.3864 4.90508 24.2813 5.6164 20.3018C6.32771 16.3223 8.34024 12.6977 11.3328 10.0067C14.3253 7.31557 18.1255 5.71301 22.1266 5.45476C26.1278 5.1965 30.0995 6.29743 33.4077 8.58183L37.9395 5.2121C33.8273 1.86528 28.7093 0.0276209 23.4252 0.00066699C18.1412 -0.0262869 13.005 1.75907 8.85942 5.06376C4.71389 8.36845 1.80527 12.9962 0.610862 18.1876C-0.58355 23.379 0.00718811 28.8256 2.28614 33.6339C4.5651 38.4421 8.3969 42.3262 13.1528 44.6488C17.9086 46.9715 23.3061 47.5948 28.4594 46.4163C33.6127 45.2379 38.2158 42.3278 41.5134 38.1635C44.8109 33.9993 46.607 28.8282 46.6069 23.4989H46.6023Z" fill="#21A049"/>
<path d="M41.7368 9.13159C42.8445 10.5747 43.7827 12.1423 44.5327 13.8032L23.2998 29.585L14.4297 23.9758V17.2293L23.2998 22.8361L41.7368 9.13159Z" fill="#21A049"/>
</g>
<defs>
<clipPath id="clip0_403_7520">
<rect width="306" height="47" fill="white"/>
</clipPath>
</defs>
</svg>
