<svg width="22" height="16" viewBox="0 0 22 16" fill="none" xmlns="http://www.w3.org/2000/svg">
<path d="M1.79185 12.8571H3.22042V14.2857H1.79185V12.8571Z" fill="#8C8C8C"/>
<path d="M17.5061 12.8571H18.9347V14.2857H17.5061V12.8571Z" fill="#8C8C8C"/>
<path d="M14.649 5.71428H16.0776V7.14286H14.649V5.71428Z" fill="#8C8C8C"/>
<path d="M13.2204 7.14286H14.649V8.57143H13.2204V7.14286Z" fill="#8C8C8C"/>
<path d="M16.0776 4.28571H17.5061V5.71428H16.0776V4.28571Z" fill="#8C8C8C"/>
<path d="M3.22042 4.28571H4.649V5.71428H3.22042V4.28571Z" fill="#8C8C8C"/>
<path d="M4.649 5.71428H6.07757V7.14286H4.649V5.71428Z" fill="#8C8C8C"/>
<path d="M6.07757 7.14286H7.50614V8.57143H6.07757V7.14286Z" fill="#8C8C8C"/>
<path d="M18.9347 12.8571H20.3633V2.85714H18.9347V1.42857H17.5061V4.28571H18.9347V12.8571Z" fill="#8C8C8C"/>
<path d="M13.2204 10V8.57143H7.50614V10H13.2204Z" fill="#8C8C8C"/>
<path d="M1.79185 2.85714H0.363281V12.8571H1.79185V4.28571H3.22042V1.42857H1.79185V2.85714Z" fill="#8C8C8C"/>
<path d="M3.22042 0V1.42857H17.5061V0H3.22042Z" fill="#8C8C8C"/>
<path d="M3.22042 14.2857V15.7143H17.5061V14.2857H3.22042Z" fill="#8C8C8C"/>
</svg>
