<svg width="27" height="45" viewBox="0 0 27 45" fill="none" xmlns="http://www.w3.org/2000/svg">
<path fill-rule="evenodd" clip-rule="evenodd" d="M7.39453 1.67777e-06L0.997608 2.237e-06L0.997609 6.39692L7.39453 6.39692L7.39453 1.67777e-06ZM13.7906 12.7939L20.1875 12.7939L20.1875 19.1909L13.7906 19.1909L13.7906 12.7939ZM20.189 19.1908L26.5859 19.1908L26.5859 25.5877L20.189 25.5877L20.189 19.1908ZM7.39605 6.39697L13.793 6.39697L13.793 12.7939L7.39605 12.7939L7.39605 6.39697ZM13.7906 25.5876L20.1875 25.5876L20.1875 31.9846L13.7906 31.9846L13.7906 25.5876ZM13.793 31.9846L7.39604 31.9846L7.39605 38.3815L13.793 38.3815L13.793 31.9846ZM0.997608 38.3816L7.39453 38.3816L7.39453 44.7785L0.997608 44.7785L0.997608 38.3816Z" fill="#545454"/>
</svg>
