<svg width="20" height="16" viewBox="0 0 20 16" fill="none" xmlns="http://www.w3.org/2000/svg">
<path d="M4.28842 0.292937L0.293425 4.29294L0.209425 4.38794C0.0603017 4.58046 -0.0134456 4.82078 0.00201987 5.06381C0.0174853 5.30684 0.121101 5.53587 0.293425 5.70794L0.388425 5.79094C0.580946 5.94006 0.821267 6.01381 1.0643 5.99834C1.30732 5.98288 1.53636 5.87926 1.70842 5.70694L4.00042 3.40994V14.9999L4.00742 15.1169C4.03585 15.3604 4.15269 15.5849 4.33575 15.7478C4.51881 15.9108 4.75534 16.0009 5.00042 16.0009L5.11742 15.9939C5.36085 15.9653 5.58526 15.8482 5.74804 15.6649C5.91082 15.4817 6.00064 15.245 6.00042 14.9999V3.41694L8.29342 5.70694L8.38842 5.79094C8.58944 5.94826 8.84301 6.02275 9.09717 5.99915C9.35134 5.97556 9.58686 5.85566 9.75548 5.66403C9.9241 5.47239 10.0131 5.22353 10.0041 4.96843C9.99519 4.71333 9.88904 4.4713 9.70742 4.29194L5.70142 0.291936L5.60742 0.208937C5.4149 0.0598136 5.17458 -0.0139339 4.93155 0.00153158C4.68852 0.0169971 4.45949 0.120613 4.28742 0.292937H4.28842ZM15.0004 0.00293634L14.8834 0.00993679C14.6402 0.038594 14.4159 0.155529 14.2531 0.338564C14.0904 0.521599 14.0005 0.758003 14.0004 1.00294V12.5829L11.7074 10.2929L11.6124 10.2089C11.4113 10.0535 11.1586 9.98038 10.9056 10.0046C10.6525 10.0288 10.4182 10.1484 10.2502 10.3392C10.0822 10.53 9.99321 10.7776 10.0012 11.0316C10.0093 11.2857 10.1137 11.5271 10.2934 11.7069L14.2974 15.7069L14.3914 15.7909C14.5839 15.9401 14.8243 16.0138 15.0673 15.9983C15.3103 15.9829 15.5394 15.8793 15.7114 15.7069L19.7074 11.7069L19.7914 11.6119C19.9405 11.4194 20.0143 11.1791 19.9988 10.9361C19.9834 10.693 19.8797 10.464 19.7074 10.2919L19.6124 10.2089C19.4199 10.0598 19.1796 9.98607 18.9366 10.0015C18.6935 10.017 18.4645 10.1206 18.2924 10.2929L16.0004 12.5869V1.00294L15.9934 0.886937C15.965 0.643505 15.8482 0.418989 15.6651 0.256025C15.482 0.0930614 15.2455 0.00299742 15.0004 0.00293634Z" fill="#EEEEEE"/>
</svg>
