<svg width="23" height="21" viewBox="0 0 23 21" fill="none" xmlns="http://www.w3.org/2000/svg">
<path fill-rule="evenodd" clip-rule="evenodd" d="M17.575 19.8891C18.9245 20.4795 19.4306 19.2425 19.4306 19.2425L23.001 1.30583C22.9729 0.0969313 21.3423 0.827891 21.3423 0.827891L1.35336 8.67165C1.35336 8.67165 0.397491 9.00902 0.481833 9.59941C0.566174 10.1898 1.32525 10.4709 1.32525 10.4709L6.35763 12.1578C6.35763 12.1578 7.87577 17.1339 8.18502 18.0898C8.46616 19.0175 8.71919 19.0457 8.71919 19.0457C9.00033 19.1581 9.25335 18.9613 9.25335 18.9613L12.5146 16.0094L17.575 19.8891ZM18.4455 4.48284C18.4455 4.48284 19.1484 4.06113 19.1203 4.48284C19.1203 4.48284 19.2327 4.53906 18.8672 4.93266C18.5299 5.27002 10.5737 12.4109 9.50534 13.3668C9.421 13.423 9.36477 13.5074 9.36477 13.6198L9.05552 16.2625C8.99929 16.5437 8.63381 16.5718 8.54947 16.3188L7.22812 11.9892C7.17189 11.8205 7.22812 11.6238 7.3968 11.5113L18.4455 4.48284Z" fill="#8C8C8C"/>
</svg>
