<svg width="355" height="93" viewBox="0 0 355 93" fill="none" xmlns="http://www.w3.org/2000/svg">
<g clip-path="url(#clip0_403_7483)">
<path d="M103.781 43.5025L105.146 39.1751L100.63 39.3152C100.249 39.3152 97.4759 39.2373 94.7858 37.3052C94.9862 37.3248 95.1867 37.3519 95.3914 37.3519C98.1604 37.3519 100.839 35.7004 101.913 33.3397L103.856 29.0745C101.421 29.1057 99.1949 28.8019 99.1949 28.8019C99.1751 28.7978 97.4209 28.576 95.3914 26.523C93.9358 25.0507 92.1346 24.2715 90.1834 24.2715C89.3301 24.2715 88.5669 24.4233 87.9101 24.6299C88.0124 24.2833 88.1106 23.9326 88.166 23.5703C88.7871 19.5777 86.1913 16.5315 86.1913 16.5356L82.7968 12.3716L80.6925 17.2639C80.6845 17.2795 80.1536 18.4249 79.2017 18.9856C78.9146 17.5483 78.2106 15.9318 76.7041 14.3853C73.8641 11.4716 70.4068 11.0392 68.5974 11.0392C67.7595 11.0392 67.1619 11.1289 67.0161 11.1522L62.9178 11.9509C63.1536 11.0433 63.6572 9.46554 64.5775 8.04378L66.8393 4.55371L61.1477 5.19643L59.3344 1.38282L55.826 3.17473L52.581 0L49.3436 3.17473L45.8234 1.38282L44.014 5.19643L38.3266 4.55371L40.5919 8.04378C41.5124 9.46554 42.016 11.0392 42.2481 11.9468L38.3381 11.1834L38.2045 11.1601C38.0077 11.1289 37.414 11.0392 36.5722 11.0392C34.7628 11.0392 31.3055 11.4755 28.4733 14.3853C26.9629 15.928 26.2589 17.5483 25.9679 18.9856C25.024 18.4326 24.4967 17.3028 24.4967 17.3028L22.3885 12.3831L18.9392 16.5746C18.5181 17.1158 16.4375 19.9791 17.0038 23.5782C17.0629 23.9366 17.1573 24.2871 17.2596 24.634C16.6067 24.4274 15.8435 24.2755 14.9901 24.2755C13.0391 24.2755 11.2377 25.0546 9.77842 26.5271C7.75646 28.5721 6.01008 28.8019 6.026 28.8019C6.026 28.8019 4.18117 29.129 1.3256 29.0782L3.25682 33.3438C4.33077 35.7083 7.01308 37.356 9.77842 37.356C9.98689 37.356 10.1874 37.3285 10.392 37.3091C7.70943 39.2412 4.93639 39.319 4.60195 39.3229L0 39.1751L1.39243 43.4986C2.09263 45.7269 4.43281 49.4196 8.91705 49.8168C8.42917 51.8425 7.34751 54.1095 4.97185 55.0872L1.54589 56.4855L3.41412 59.707C4.4683 61.4443 6.94239 63.4775 10.4665 63.4775C11.2297 63.4737 11.9651 63.3996 12.6733 63.2518C12.8543 64.0464 13.0823 64.8411 13.3499 65.6278C14.3999 68.7206 13.4953 70.8786 13.4835 70.902L11.7921 74.4116L15.5682 75.3972C15.6155 75.4127 16.756 75.7204 18.1839 75.7204C18.833 75.7204 19.4503 75.6543 20.0326 75.5181C20.473 75.4166 20.8941 75.2804 21.299 75.1167C21.7868 75.9853 22.3807 76.7761 23.0731 77.4849C25.4921 79.943 28.9181 81.1894 33.2603 81.1894H33.2761L36.3756 81.1504L29.972 83.7837L34.8337 86.1093C36.5998 86.9624 38.6962 87.971 40.8281 88.7423L40.2223 90.3863L41.898 91.1419C42.0473 91.208 45.2687 92.6377 50.6262 92.9415C50.6262 92.9415 51.9202 93 52.632 93C53.3439 93 54.6222 92.9378 54.6222 92.9378C59.9443 92.6261 63.1418 91.2121 63.2915 91.1419L64.9708 90.3824L64.3573 88.7348C66.5522 87.94 68.7232 86.892 70.4146 86.0742L75.1857 83.7798L68.8018 81.1429L71.9132 81.1818C76.2597 81.1818 79.6895 79.9352 82.1043 77.4735C82.7928 76.7684 83.3869 75.9777 83.8786 75.1089C84.2837 75.2726 84.7083 75.4089 85.1489 75.5102C85.7271 75.6464 86.3447 75.7128 86.9937 75.7128C88.3977 75.7128 89.5504 75.4052 89.5817 75.3972L93.3736 74.4041L91.7214 70.9605C91.6822 70.8708 90.7775 68.7167 91.8278 65.62C92.0951 64.8293 92.3193 64.0348 92.5003 63.2439C93.2124 63.3919 93.9556 63.4698 94.7228 63.4698C99.2104 63.4698 101.362 60.3419 101.779 59.6641L103.628 56.4779L100.202 55.0833C97.8221 54.1055 96.7445 51.8345 96.2606 49.8131C100.682 49.439 103.057 45.7463 103.781 43.5025ZM42.5467 13.4388L42.4999 13.4505L42.5392 13.3998L42.5467 13.4388Z" fill="white"/>
<path d="M52.5869 13.248C48.9603 13.2519 46.2426 14.4282 45.6484 15.811L52.5869 18.5224L59.5253 15.811C58.9353 14.4282 56.2174 13.2519 52.5869 13.248Z" fill="white"/>
<path d="M52.6531 85.0185H52.6452H52.5861H52.5192H52.5153C50.3165 85.0342 47.2918 84.586 45.8325 84.1654L44.0781 88.8669C45.2347 89.2761 49.1523 90.055 52.5861 90.055C56.012 90.055 59.9336 89.2723 61.0861 88.8669L59.3355 84.1654C57.8726 84.5899 54.8516 85.0342 52.6531 85.0185Z" fill="white"/>
<path d="M65.9315 80.3442C64.6256 81.0766 61.7109 82.175 60.0156 82.6853L61.4395 86.5688C64.0629 85.8597 66.2262 85.0303 68.0162 84.1421L65.062 83.1681L65.9315 80.3442Z" fill="white"/>
<path d="M39.241 80.3442L40.1141 83.1681L37.1562 84.1421C38.9419 85.0303 41.117 85.8597 43.7288 86.5688L45.1527 82.6853C43.4652 82.175 40.5466 81.0725 39.241 80.3442Z" fill="white"/>
<path d="M52.5883 8.75242C55.322 8.75242 58.0045 9.39901 60.0655 10.5367C60.2545 9.90931 60.5179 9.14975 60.8758 8.3551L60.0972 8.44861L59.2789 8.53442L58.9326 7.79819L57.8904 5.61689L55.9906 6.59827L55.2512 6.97229L54.6612 6.3959L52.5961 4.37036L50.5351 6.3959L49.9451 6.97229L49.2057 6.59827L47.294 5.61689L46.2634 7.79819L45.9096 8.53442L45.0913 8.44861L44.3125 8.3551C44.6706 9.15358 44.9302 9.90931 45.1228 10.5367C47.1879 9.39901 49.8624 8.75242 52.5883 8.75242Z" fill="white"/>
<path d="M94.3185 33.963C94.6727 34.0837 95.0343 34.1381 95.3924 34.1381C96.938 34.1381 98.4328 33.1488 98.948 32.0152C98.948 32.0152 96.1121 31.8439 93.0637 28.7782C92.0924 27.7849 91.0657 27.489 90.1846 27.489C88.8158 27.489 87.7891 28.2057 87.7891 28.2057C91.4709 30.1455 92.2219 33.2618 94.3185 33.963Z" fill="white"/>
<path d="M9.77847 34.1381C10.1363 34.1381 10.4982 34.0837 10.8445 33.963C12.9487 33.2618 13.7039 30.1455 17.3856 28.2057C17.3856 28.2057 16.3548 27.489 14.994 27.489C14.109 27.489 13.0823 27.7849 12.1068 28.7782C9.0626 31.8439 6.22656 32.0152 6.22656 32.0152C6.73398 33.1488 8.23259 34.1381 9.77847 34.1381Z" fill="white"/>
<path d="M95.3196 46.6267C95.3826 46.6304 95.4376 46.6304 95.5045 46.6304C99.363 46.6304 100.673 42.5363 100.673 42.5363H100.598C99.8903 42.5363 94.1514 42.373 90.0961 37.2661C87.4254 33.9086 85.2383 30.9559 80.9155 29.7949L80.4909 29.7209L80.3964 29.2925C80.2784 28.638 80.7308 28.0266 81.7575 27.3643C87.7203 23.4965 83.6728 18.5649 83.6728 18.5649C83.6728 18.5649 81.9698 22.5109 78.1585 22.5109C78.0679 22.5109 77.9695 22.5068 77.8752 22.5068C77.4426 22.4836 77.0256 22.4679 76.6045 22.3785L75.9005 22.242C75.9005 22.242 76.9864 19.3167 74.3666 16.629C72.392 14.5996 69.9888 14.2568 68.6003 14.2568C67.9 14.2568 67.4556 14.3462 67.4556 14.3462C68.7733 16.0523 69.7252 18.8805 68.2031 20.6255C66.8895 22.1251 63.6797 22.1991 63.6797 24.435C63.6797 25.3817 64.5726 26.488 66.1773 27.4811C71.0036 30.4922 75.7944 34.4848 77.7846 39.8372C80.2745 46.5136 77.4701 50.9427 73.4659 53.4824C73.4659 53.4824 74.7207 54.6275 76.5419 54.7716C76.9115 54.8067 77.2735 54.8222 77.6118 54.8222C81.4546 54.8222 83.4409 53.0381 83.4409 53.0381C83.4409 53.0381 83.1143 55.5038 81.1122 57.7943C79.2676 59.9095 76.8446 61.1522 73.1511 61.2066C73.1511 61.2066 73.0331 62.9048 74.6695 64.3735C75.7157 65.3006 78.1348 65.6044 78.1348 65.6044C78.1348 65.6044 73.6074 66.5119 73.108 73.1341C72.8364 76.7214 71.9121 77.9679 71.9121 77.9679H71.995C82.5007 77.9679 82.2293 69.044 82.2293 69.044C82.2293 69.044 82.9609 71.6848 85.8913 72.3744C86.2451 72.468 86.6229 72.503 86.9847 72.503C87.9289 72.503 88.7468 72.2849 88.7468 72.2849C88.7468 72.2849 87.2129 69.0791 88.735 64.5955C89.9977 60.8755 89.7932 58.1177 89.7932 58.1177C89.7932 58.1177 91.2091 60.2367 94.7179 60.2563H94.7531C97.6757 60.2563 98.9499 58.0632 98.9499 58.0632C91.9448 55.1845 92.6371 45.8905 92.6371 45.8905C92.6371 45.8905 93.5458 46.5603 95.3196 46.6267ZM93.2112 56.3334C90.3634 54.9431 88.562 51.2504 88.1255 49.918C87.6533 57.2411 84.0426 62.3246 79.8221 67.2169C77.6312 69.7527 76.8683 72.2184 76.8683 72.2184C76.8683 72.2184 77.2891 69.4257 79.1848 67.1509C83.1223 62.4646 86.863 56.6335 87.1421 49.8909C87.3348 45.1852 86.1116 41.368 84.204 38.2246C85.2698 41.5005 85.1204 45.5125 81.4977 49.2557C81.4977 49.2557 88.7076 40.6978 78.6264 31.9258C74.5908 28.5877 70.1776 26.5269 67.9043 25.0662C76.1169 27.7189 80.1252 24.7973 80.1252 24.7973C77.5014 27.0487 74.1071 27.0098 72.0026 26.6866C72.573 26.9633 73.1671 27.2514 73.8081 27.5902C80.7308 31.3143 86.9534 37.4414 88.0153 45.9294V45.863C89.6279 54.195 93.2112 56.3334 93.2112 56.3334Z" fill="white"/>
<path d="M27.0302 65.6044C27.0302 65.6044 29.4493 65.3044 30.4956 64.3735C32.1278 62.9048 32.014 61.2066 32.014 61.2066C28.3167 61.1559 25.8976 59.9095 24.0411 57.7984C22.0546 55.5079 21.7243 53.042 21.7243 53.042C21.7243 53.042 23.7104 54.8262 27.5495 54.8262C27.8957 54.8262 28.2537 54.8106 28.6232 54.7755C30.4445 54.6313 31.7031 53.4861 31.7031 53.4861C27.6988 50.9464 24.8907 46.5136 27.3765 39.8372C29.3708 34.4887 34.1574 30.4922 38.984 27.4811C40.5886 26.488 41.4814 25.3854 41.4814 24.435C41.4814 22.1991 38.2757 22.1251 36.9619 20.6255C35.44 18.8805 36.3957 16.0485 37.7094 14.3462C37.7094 14.3462 37.2727 14.2568 36.5686 14.2568C35.1841 14.2568 32.7808 14.5996 30.8063 16.629C28.1788 19.3167 29.2685 22.242 29.2685 22.242L28.5643 22.3785C28.1436 22.4679 27.7225 22.4836 27.2938 22.5068C27.1957 22.5068 27.1089 22.5109 27.0147 22.5109C23.1954 22.5109 21.5001 18.5687 21.5001 18.5687C21.5001 18.5687 17.4526 23.5004 23.4116 27.3682C24.4383 28.0304 24.8868 28.6419 24.7688 29.2964L24.6741 29.725L24.2415 29.799C19.9267 30.9597 17.7359 33.9123 15.0652 37.27C11.0177 42.3691 5.28674 42.5363 4.57112 42.5363H4.49219C4.49219 42.5363 5.80213 46.6304 9.66068 46.6304C9.72367 46.6304 9.77867 46.6304 9.84551 46.6267C11.6194 46.5642 12.5319 45.8905 12.5319 45.8905C12.5319 45.8905 13.2165 55.1804 6.21905 58.0632C6.21905 58.0632 7.49351 60.2563 10.4159 60.2563H10.4514C13.9637 60.2367 15.3759 58.1177 15.3759 58.1177C15.3759 58.1177 15.1713 60.8755 16.4301 64.5955C17.9521 69.0791 16.426 72.2849 16.426 72.2849C16.426 72.2849 17.2442 72.503 18.1842 72.503C18.55 72.503 18.9237 72.468 19.2738 72.3744C22.2 71.6848 22.9357 69.044 22.9357 69.044C22.9357 69.044 22.6681 77.9679 33.1743 77.9679H33.2487C33.2487 77.9679 32.3286 76.7214 32.0611 73.1341C31.5577 66.5119 27.0302 65.6044 27.0302 65.6044ZM25.3431 67.2169C21.1226 62.3246 17.5156 57.2411 17.0396 49.918C16.6031 51.2465 14.8094 54.9431 11.9618 56.3334C11.9618 56.3334 15.5409 54.195 17.1498 45.863V45.9294C18.2158 37.4455 24.4344 31.3143 31.3608 27.5902C31.9942 27.2475 32.5959 26.9594 33.1624 26.6866C31.0581 27.0098 27.6636 27.0487 25.04 24.7973C25.04 24.7973 29.048 27.7189 37.257 25.0662C34.9837 26.5269 30.5742 28.5877 26.5385 31.9258C16.4535 40.6978 23.6672 49.2557 23.6672 49.2557C20.0408 45.5084 19.8954 41.5005 20.9612 38.2246C19.0497 41.3719 17.8302 45.1852 18.0269 49.8909C18.3022 56.6335 22.0427 62.4646 25.9722 67.1509C27.8722 69.4218 28.3009 72.2184 28.3009 72.2184C28.3009 72.2184 27.5297 69.7527 25.3431 67.2169Z" fill="white"/>
<path d="M44.8215 32.9777C44.9943 33.1606 45.1635 33.3596 45.325 33.558C45.3643 33.6049 45.3995 33.6477 45.4388 33.7024C45.5885 33.9008 45.7419 34.1114 45.8875 34.3255C45.9188 34.3683 45.9505 34.4191 45.9857 34.4694C46.1628 34.7345 46.328 35.0073 46.4931 35.2878C48.0074 37.8779 50.4344 39.4244 52.5858 39.4283C54.7413 39.4244 57.1604 37.8779 58.6827 35.2878C58.8518 34.9993 59.0209 34.719 59.1977 34.458C59.2253 34.4191 59.2531 34.384 59.2764 34.345C59.4259 34.123 59.5834 33.9048 59.7486 33.6944C59.7838 33.6477 59.8153 33.6088 59.8468 33.5698C60.0159 33.3633 60.189 33.1608 60.3661 32.9737C60.3974 32.9427 60.4209 32.9154 60.4485 32.8921C61.2194 32.1092 62.1399 31.513 63.3433 31.1821L62.8085 30.8744H62.7772L60.6451 29.6474L58.4544 28.4047L52.6016 31.5599L52.5858 31.5481L52.574 31.5599L46.7172 28.4047L44.5305 29.6433L42.3946 30.8703H42.3709L41.8281 31.1782C43.0356 31.5091 43.9521 32.0973 44.727 32.8803C44.7622 32.9115 44.7859 32.9465 44.8215 32.9777ZM50.2179 32.7245H52.6959H55.17V34.4072C54.5881 33.7024 53.4552 33.8465 53.4552 33.8465V36.2732C53.4552 36.2732 53.4984 37.4652 53.9191 37.9831H52.6959H51.4687C51.8974 37.4691 51.9369 36.2732 51.9369 36.2732V33.8465C51.9369 33.8465 50.8079 33.7024 50.2179 34.4072V32.7245Z" fill="white"/>
<path d="M52.0748 29.4597V19.6087L45.7422 17.4816L47.4138 27.0291L52.0748 29.4597ZM50.7139 22.0276V23.609L50.4072 23.4687C50.3914 23.4571 49.9431 23.3558 49.1563 22.7402C47.8584 21.7432 47.8349 20.8239 47.8349 20.8239L50.7139 22.0276Z" fill="white"/>
<path d="M57.7587 27.0291L59.4225 17.4816L53.0938 19.6087V29.4597L57.7587 27.0291ZM54.4548 22.0276L57.3337 20.8277C57.3337 20.8277 57.3104 21.7471 56.0084 22.7441C55.2257 23.3597 54.7733 23.4608 54.7575 23.4726L54.4506 23.6127V22.0276H54.4548Z" fill="white"/>
<path d="M43.1181 52.2984C43.7358 52.5202 44.4831 52.5671 44.8645 52.5671C44.8805 52.5202 44.8999 52.4617 44.9197 52.3918C44.9549 52.2788 44.9866 52.1698 45.0103 52.045C45.1165 51.5 45.1558 50.8805 45.1635 50.4832C44.9038 50.3233 44.5381 50.0389 44.3338 49.6144C44.0978 49.1236 43.7634 48.8977 43.2715 48.8977C42.6344 48.8977 41.9501 49.2755 41.6588 49.4549C41.4271 50.8141 42.4376 52.049 43.1181 52.2984Z" fill="white"/>
<path d="M57.1247 47.0702C55.9487 48.3362 53.6477 50.541 53.5335 50.654L53.3959 50.7943L46.1232 50.6811C46.1192 51.3941 46.0012 52.0017 45.8872 52.4458C45.8676 52.5198 45.848 52.5977 45.8281 52.6756L54.4815 54.2143C55.3822 53.591 57.8602 51.799 58.82 51.0981C58.1198 50.0853 58.0529 48.8854 58.2102 48.0403C57.7541 47.7481 57.4039 47.4209 57.1247 47.0702Z" fill="white"/>
<path d="M58.1173 38.4081C56.4414 40.0557 54.8328 40.6633 53.3973 40.8036C53.1375 40.8309 52.8741 40.8462 52.6066 40.8462H52.5868H52.571C52.3037 40.8462 52.0362 40.8309 51.7764 40.8036C51.5249 40.7801 51.2614 40.7412 50.998 40.6829C50.9033 41.0527 50.7853 41.8279 51.1236 42.5603C51.4265 43.2264 52.0442 43.7211 52.9449 44.0485L53.2476 44.1651L53.2517 44.4885C53.2517 44.5858 53.3224 46.6816 55.6313 47.2619C56.0088 46.8763 56.351 46.5297 56.603 46.2412C56.1307 45.1428 56.3784 44.021 57.063 43.4717C57.0317 43.5885 56.7326 46.3388 58.9591 47.3591L59.3248 47.5308L59.2145 47.9163C59.179 48.0332 58.4357 50.6937 61.1301 51.683L61.606 51.8623L61.3935 52.322C61.3465 52.4232 60.2885 54.8384 62.7783 56.2094H68.1786V51.9636C66.2593 51.7297 65.4449 50.203 65.2365 49.1199C64.3438 48.968 63.6515 48.5863 63.1792 47.963C62.0464 46.4867 63.0219 45.1351 63.0338 45.061C63.0299 45.0729 63.0338 46.514 63.9306 47.4021C64.3751 47.8305 64.9023 48.1618 65.7006 48.2358L66.0939 48.2709L66.1295 48.6683C66.137 48.7537 66.3536 50.7015 68.1825 51.0092L68.1786 42.3383C68.1786 40.9944 68.576 39.6428 69.0519 38.3962H58.1173V38.4081Z" fill="white"/>
<path d="M43.5829 42.3799L43.4375 47.9036L44.0705 47.9971L45.6204 42.6994L44.8338 41.0712L43.5829 42.3799Z" fill="white"/>
<path d="M60.6665 67.7118C60.7137 67.7118 60.7687 67.7197 60.8199 67.7314C61.7836 68.0042 62.0276 71.4475 63.7188 71.7552C63.884 71.7902 64.0374 71.798 64.1712 71.798C64.659 71.798 64.95 71.5914 65.2646 71.2254C65.2646 71.2254 64.415 69.901 63.7779 69.0091C62.9322 67.8404 62.2754 66.4263 60.702 66.4263C60.6665 66.4263 60.6194 66.4263 60.5801 66.4305C60.0609 66.4576 59.7422 66.7068 59.7422 66.7068C59.1049 66.3096 58.5112 66.1732 57.9721 66.1732C56.985 66.1732 56.2181 66.6214 55.8362 66.6214H55.8207L52.3041 66.2786C51.7536 66.2279 51.321 65.6786 51.1637 65.4645C51.1242 65.4058 51.1046 65.3709 51.1046 65.3709C51.1046 65.2773 51.1046 65.1801 51.0968 65.0942C50.9788 62.2469 48.7526 61.0276 47.9619 61.008C47.9619 61.008 48.0562 60.4667 47.84 60.2604L47.0651 61.1911L44.5202 59.9252L46.3335 62.0248L44.7955 63.7347C44.6026 63.9298 44.6263 64.1947 44.7051 64.3035L45.3698 64.884L46.2116 64.3775C46.2547 64.3465 46.3296 64.3386 46.4239 64.3386C46.656 64.3386 47.0062 64.3969 47.3207 64.3969C47.6629 64.3969 47.9619 64.3229 47.9973 64.0034C47.8911 65.0592 46.9039 66.8938 47.5529 68.3351L48.0329 69.422L44.9253 68.9778L43.47 71.4124C43.0216 72.2227 42.9509 73.099 43.3834 73.5743L43.9261 74.2483C43.9261 74.2483 44.6893 73.4456 44.8624 72.9198L44.6145 72.6511C44.4061 72.4251 44.4179 72.2227 44.5439 71.9774L45.4563 70.4774L49.126 71.3345L49.3187 71.0073C49.5666 70.5983 49.9247 70.4735 50.318 70.4735C50.4792 70.4735 50.6444 70.4931 50.8175 70.5204C51.4981 70.6529 52.6191 70.8319 53.7401 70.8319C54.9711 70.8319 56.1905 70.614 56.8392 69.8934C58.1688 71.8449 60.8632 72.1564 60.6507 73.1457L59.9429 76.4881C60.411 76.4685 60.8632 76.4373 61.2919 76.3788L61.9646 72.9002C62.0394 72.5224 62.11 72.0121 62.11 72.0121C61.8504 71.7513 61.2211 71.1981 60.8673 70.5281C60.3912 69.6243 60.6507 69.1531 60.2063 67.9766C60.222 67.9846 60.3558 67.7118 60.6665 67.7118ZM46.9393 62.8272C46.7583 62.8233 46.6284 62.6714 46.6362 62.4924C46.6521 62.3209 46.7976 62.1845 46.9745 62.2C47.1555 62.2079 47.2853 62.3637 47.2776 62.5352C47.2616 62.7065 47.1123 62.839 46.9393 62.8272Z" fill="white"/>
<path d="M41.9321 70.8746C41.9321 70.8746 43.1474 70.3799 43.2574 70.0254L43.0963 69.6241C42.9822 69.3631 42.9979 69.0787 43.2182 68.9231L44.5318 68.0232L46.7268 68.4399C46.7268 68.4399 46.3294 67.9491 46.3688 67.2908L44.2764 66.8506L42.3017 68.0425C41.456 68.6697 41.393 69.6941 41.6724 70.3017L41.9321 70.8746Z" fill="white"/>
<path d="M57.4453 76.5384C57.8386 76.5229 58.2712 76.5152 58.7473 76.5152C58.7473 76.5152 59.8763 73.247 59.9389 73.142C59.3059 72.8653 57.992 72.1756 57.4846 71.8604C57.819 72.355 58.6332 72.9236 58.472 73.36L57.4453 76.5384Z" fill="white"/>
<path d="M68.1876 57.1559H36.9844V68.7793C36.9844 73.5316 40.4578 76.5078 45.5827 76.5078C49.8662 76.5078 50.9948 76.6712 52.588 78.2372C53.6855 77.1544 54.5942 76.7491 56.4584 76.5971L56.5016 76.4181L57.4849 73.4071C57.4299 73.3408 55.8213 71.5296 55.8213 71.5296C55.1841 71.74 54.6492 71.7751 53.7485 71.7751C52.8241 71.7751 51.7818 71.6697 50.6528 71.4595C50.5387 71.4324 50.4326 71.4244 50.3262 71.4244C50.1886 71.4244 50.1769 71.436 50.1415 71.5023L49.9448 71.8216L49.5869 72.406L48.9144 72.2541L45.921 71.5567L45.5118 72.2269L45.5748 72.2969L45.9406 72.6943L45.7795 73.2123C45.559 73.8901 44.8432 74.6808 44.627 74.8991L43.8795 75.6937L43.1992 74.8406L42.6879 74.2057C42.1488 73.6097 42.0232 72.6943 42.3259 71.7362C42.3179 71.7437 42.3061 71.7476 42.2946 71.7476L41.4489 72.0944L41.0671 71.2762L40.7998 70.6961C40.3398 69.6754 40.5085 68.1836 41.7479 67.2836L44.159 65.9359L46.4521 66.384C46.5072 66.1657 46.5896 65.3866 46.6565 65.1882C46.6133 65.1843 46.5702 65.1725 46.5266 65.1725L45.2052 65.6594L43.9306 64.7869C43.9306 64.7869 43.4311 64.3115 43.8833 63.8364L45.1185 61.9863L41.9915 58.0985L46.798 60.0542L47.1168 59.6607L47.7656 58.8932L48.5013 59.5867C48.7097 59.7853 48.8277 60.0306 48.8866 60.276C50.2121 60.7864 52.584 62.2939 52.7924 64.7439L52.0491 65.04V65.0595C52.2183 65.2581 52.3598 65.3401 52.403 65.3476L55.833 65.6828C55.9195 65.6671 56.0298 65.6282 56.1517 65.5931C56.5764 65.4492 57.2176 65.2426 57.9766 65.2426C58.5943 65.2426 59.1919 65.3827 59.7662 65.6478C59.9787 65.5699 60.2384 65.5114 60.5374 65.492L60.7023 65.4881C62.5393 65.4881 63.4517 66.8473 64.1837 67.9305C64.3054 68.1171 64.4273 68.2965 64.5533 68.4717C65.1942 69.3678 66.032 70.6804 66.0675 70.7351L66.4451 71.3194L65.9808 71.853C65.6231 72.2618 65.0881 72.7411 64.1677 72.7411C63.979 72.7411 63.7705 72.7216 63.5464 72.6786C63.3498 72.6437 63.1727 72.585 62.9997 72.515C62.9721 72.6942 62.9367 72.9085 62.9011 73.0914L62.2994 76.2C65.8984 75.3236 68.1837 72.6319 68.1837 68.7834L68.1876 57.1559Z" fill="#FFDD2D"/>
<path d="M36.9823 56.2211H61.2471C60.0356 54.9824 60.0515 53.4127 60.3622 52.392C60.0081 52.2244 59.7171 52.0217 59.4576 51.8038C58.5096 52.497 55.6146 54.5851 54.8595 55.1068L54.6983 55.2161L45.1755 53.5099H44.9829C44.7548 53.5099 44.4204 53.502 44.0545 53.4592C43.9523 53.8839 43.5827 54.176 43.1577 54.176C43.1105 54.176 43.0554 54.1722 43.0043 54.1604C42.7564 54.1175 42.5404 53.9928 42.3948 53.7864C42.2453 53.5839 42.1864 53.3423 42.2296 53.0932L42.2649 52.8905C41.2816 52.205 40.377 50.674 40.7781 49.0614L40.8173 48.8902L40.9552 48.7927C40.9748 48.7772 41.1399 48.6681 41.3839 48.5278L40.6916 48.4226C40.432 48.3759 40.259 48.1382 40.2984 47.8852C40.3416 47.6281 40.5854 47.4448 40.8411 47.4955L42.4891 47.7527L42.6386 42.0031L45.0931 39.4323L46.6231 42.6227L45.0064 48.1539L46.462 48.3798C46.7174 48.4188 46.8945 48.6563 46.8553 48.9173C46.8158 49.1471 46.6192 49.3069 46.3871 49.3069C46.3634 49.3069 46.336 49.3069 46.3123 49.303L45.1283 49.1122C45.1442 49.1471 45.1675 49.1664 45.1835 49.2054C45.3093 49.4627 45.5886 49.6497 45.7537 49.7275L53.0149 49.8405C53.3215 49.5445 54.0847 48.8043 54.8674 48.0214C53.0818 47.3514 52.4326 45.8245 52.3224 44.8115C51.3235 44.3909 50.6351 43.76 50.2536 42.938C49.7894 41.9216 49.9546 40.9048 50.0765 40.4101C49.1089 40.0594 48.0904 39.4208 47.0518 38.4001H36.1172C36.5853 39.6463 36.9823 40.9983 36.9823 42.3422V56.2211Z" fill="#FFDD2D"/>
<path d="M46.9796 62.1996C46.8025 62.1839 46.6532 62.3201 46.6414 62.4916C46.6295 62.6706 46.7633 62.8225 46.9443 62.8264C47.1171 62.8421 47.2707 62.7095 47.2862 62.5344C47.2862 62.3629 47.1606 62.2035 46.9796 62.1996Z" fill="black"/>
<path d="M68.1423 83.2766L66.3447 82.5948L66.8403 80.7563L67.387 78.7502C67.387 78.7502 64.2009 80.4605 59.713 81.746C58.4387 82.1081 57.475 82.2716 57.475 82.2716V83.6349C57.475 83.6349 55.0757 84.0479 52.6488 84.0479H52.621H52.5858H52.5386H52.511C50.0843 84.0479 47.6848 83.6349 47.6848 83.6349V82.2716C47.6848 82.2716 46.7171 82.1081 45.4468 81.746C40.9587 80.4605 37.7767 78.7502 37.7767 78.7502L38.3154 80.7563L38.8229 82.5948L37.0214 83.2766L35.0234 84.0166C37.3166 85.1113 40.4906 86.7085 43.3976 87.4952L42.7131 89.3493C42.7131 89.3493 46.3986 91.0127 52.5386 91.0284V91.0322H52.5584H52.5858H52.6095H52.6251V91.0284C58.7731 91.0127 62.4545 89.3493 62.4545 89.3493L61.7661 87.4952C64.6727 86.7085 67.8551 85.1113 70.1364 84.0166L68.1423 83.2766ZM37.1552 84.1413L40.113 83.1677L39.2399 80.3434C40.5417 81.0758 43.4645 82.1742 45.1555 82.6845L43.7279 86.5681C41.116 85.8554 38.9409 85.0256 37.1552 84.1413ZM52.5858 90.0544C49.1519 90.0544 45.2304 89.2714 44.0781 88.8665L45.8321 84.1648C47.2875 84.5856 50.3162 85.0334 52.5149 85.0177H52.5189H52.5858H52.6447H52.6527C54.8515 85.0334 57.8721 84.5856 59.3355 84.1648L61.0856 88.8665C59.9333 89.2753 56.0157 90.0544 52.5858 90.0544ZM61.4357 86.5681L60.0121 82.6845C61.7071 82.1742 64.6216 81.0758 65.9277 80.3434L65.0585 83.1677L68.0124 84.1413C66.2226 85.0256 64.0592 85.8554 61.4357 86.5681Z" fill="black"/>
<path d="M52.5867 9.88976C56.2448 9.88976 59.1709 11.0897 60.7877 12.3713C60.7877 12.3713 61.2675 9.50807 62.9078 6.98018L59.9616 7.31114L58.4199 4.06647L55.458 5.57789L52.5867 2.76538L49.7232 5.57789L46.7576 4.06647L45.2196 7.31114L42.2734 6.98018C43.9135 9.50807 44.3935 12.3713 44.3935 12.3713C46.014 11.0897 48.9325 9.88976 52.5867 9.88976ZM45.0856 8.44855L45.9039 8.53436L46.258 7.79813L47.2883 5.61682L49.2 6.59437L49.9396 6.96838L50.5296 6.39199L52.5906 4.36645L54.6557 6.39199L55.2457 6.96838L55.9851 6.59437L57.8851 5.61682L58.9273 7.79813L59.2734 8.53436L60.0915 8.44855L60.8703 8.35505C60.5124 9.15378 60.2488 9.90923 60.0598 10.5366C57.9988 9.39921 55.3163 8.75237 52.5828 8.75237C49.861 8.75237 47.1822 9.39921 45.1132 10.5366C44.9208 9.90923 44.661 9.14968 44.3029 8.35505L45.0856 8.44855Z" fill="black"/>
<path d="M95.5051 47.8807C100.237 47.8807 101.818 43.1131 101.885 42.9104L102.412 41.2314L100.638 41.286H100.63C100.005 41.286 94.7854 41.1496 91.0841 36.4909L90.734 36.0586C88.3151 33.0125 86.022 30.1183 81.9233 28.7977C82.0414 28.6926 82.2105 28.5601 82.4426 28.4121C84.6177 26.9942 85.8841 25.2724 86.2028 23.2742C86.6669 20.267 84.7319 17.8714 84.6453 17.774L83.3276 16.1614L82.5056 18.074C82.4506 18.1947 81.0658 21.2565 78.1552 21.2565H77.9388C77.7384 21.2447 77.5494 21.2369 77.3606 21.2213C77.4631 19.8542 77.2111 17.7389 75.2761 15.7562C72.9513 13.3684 70.0958 13.01 68.6013 13.01C67.8027 13.01 67.2717 13.1074 67.2165 13.1153L65.2265 13.5047L66.4536 15.1058C67.4173 16.3405 68.2905 18.6194 67.2558 19.8113C66.9255 20.1891 66.2452 20.4968 65.5922 20.8045C64.2509 21.416 62.4219 22.2652 62.4219 24.4311C62.4219 25.8335 63.5193 27.298 65.5096 28.5444C71.4019 32.2139 75.036 36.0429 76.6055 40.2692C79.0324 46.7707 75.866 50.4789 72.7902 52.4305L71.4094 53.3107L72.6171 54.4091C72.7783 54.5495 74.2574 55.8388 76.4403 56.0259C76.8532 56.053 77.2504 56.0763 77.6204 56.0763C79.0206 56.0763 80.2125 55.8583 81.1799 55.566C80.9124 56.0296 80.586 56.501 80.173 56.9763C78.415 58.9938 76.2515 59.9133 73.1403 59.96L71.9837 59.9796L71.8933 61.1285C71.8815 61.3583 71.7952 63.4892 73.8324 65.3005C74.1433 65.5807 74.5208 65.8109 74.9141 66.0017C73.5336 67.2326 72.1292 69.3749 71.8581 73.0482C71.6299 76.1137 70.8904 77.2474 70.8826 77.2588L69.6043 79.1909L71.9132 79.2223C75.7285 79.2223 78.6508 78.1783 80.6764 76.1137C81.8722 74.8906 82.5568 73.5117 82.9619 72.2887C83.6266 72.8494 84.4842 73.3402 85.6009 73.6012C86.0259 73.6986 86.4901 73.7531 86.9896 73.7531C88.0674 73.7531 88.9681 73.5272 89.0704 73.5039L90.5452 73.1143L89.8924 71.7509C89.8451 71.642 88.6141 68.9074 89.9394 65.0043C90.5098 63.3177 90.8009 61.8063 90.9424 60.63C91.8707 61.1089 93.1138 61.5063 94.7224 61.5102C98.3725 61.5102 99.9813 58.8109 100.056 58.6979L100.776 57.4591L99.4426 56.9139C95.0922 55.1259 94.1287 50.3229 93.9358 47.721C94.3291 47.795 94.7776 47.8652 95.2848 47.8807H95.5051ZM98.9546 58.0628C98.9546 58.0628 97.6802 60.2561 94.7578 60.2561H94.7224C91.2138 60.2365 89.7979 58.1175 89.7979 58.1175C89.7979 58.1175 90.0024 60.8755 88.736 64.5953C87.2137 69.0789 88.7477 72.2848 88.7477 72.2848C88.7477 72.2848 87.9296 72.5028 86.9857 72.5028C86.6237 72.5028 86.2461 72.4677 85.8921 72.3742C82.9619 71.6848 82.2303 69.0438 82.2303 69.0438C82.2303 69.0438 82.5015 77.9679 71.9956 77.9679H71.9132C71.9132 77.9679 72.8374 76.7213 73.1127 73.1337C73.6121 66.5119 78.1397 65.6043 78.1397 65.6043C78.1397 65.6043 75.7243 65.3044 74.6781 64.3734C73.0417 62.9048 73.1559 61.2064 73.1559 61.2064C76.8532 61.1558 79.2723 59.9094 81.1169 57.7943C83.1153 55.5038 83.4456 53.0381 83.4456 53.0381C83.4456 53.0381 81.4591 54.8222 77.6165 54.8222C77.2782 54.8222 76.9162 54.8065 76.5464 54.7714C74.7293 54.6274 73.4706 53.482 73.4706 53.482C77.4707 50.9423 80.2792 46.5095 77.7895 39.8329C75.7952 34.4848 71.0045 30.4883 66.1822 27.4772C64.5773 26.4839 63.6844 25.3816 63.6844 24.4311C63.6844 22.1952 66.8942 22.1251 68.2119 20.6214C69.7299 18.8764 68.778 16.0446 67.4605 14.3424C67.4605 14.3424 67.9049 14.2527 68.605 14.2527C69.9935 14.2527 72.3969 14.5993 74.3713 16.6249C76.995 19.3126 75.9053 22.2381 75.9053 22.2381L76.6094 22.3745C77.0303 22.464 77.4474 22.4797 77.8799 22.499C77.9742 22.499 78.0687 22.5029 78.163 22.5029C81.9745 22.5029 83.6777 18.5569 83.6777 18.5569C83.6777 18.5569 87.7291 23.4924 81.7661 27.3563C80.7394 28.0186 80.287 28.6301 80.4052 29.2845L80.4997 29.7131L80.9243 29.7871C85.247 30.9479 87.434 33.9006 90.1047 37.2581C94.16 42.365 99.8989 42.5287 100.607 42.5287H100.682C100.682 42.5287 99.3716 46.6225 95.5131 46.6225C95.4501 46.6225 95.3951 46.6225 95.3282 46.6188C93.5544 46.5562 92.6457 45.8825 92.6457 45.8825C92.6457 45.8825 91.9495 55.1804 98.9546 58.0628Z" fill="black"/>
<path d="M87.1924 29.3123C88.9582 30.243 89.9849 31.4896 90.8857 32.5957C91.7706 33.6747 92.6125 34.7148 93.9259 35.1472C94.3941 35.3071 94.8896 35.3811 95.3932 35.3811C97.3676 35.3811 99.3503 34.1851 100.101 32.5297L100.857 30.8702L99.0277 30.7611C98.941 30.7573 96.589 30.5468 93.9695 27.8942C92.8916 26.8077 91.5896 26.2347 90.1854 26.2347C88.4707 26.2347 87.2 27.0839 87.0584 27.1698L85.375 28.3424L87.1924 29.3123ZM90.1895 27.4893C91.0704 27.4893 92.0971 27.7851 93.0687 28.7785C96.1168 31.8442 98.9529 32.0155 98.9529 32.0155C98.4377 33.145 96.943 34.1384 95.397 34.1384C95.0393 34.1384 94.6812 34.0839 94.3233 33.9632C92.2269 33.2621 91.4755 30.1458 87.79 28.2058C87.79 28.2058 88.8208 27.4893 90.1895 27.4893Z" fill="black"/>
<path d="M88.0174 45.8631V45.9257C86.9555 37.4418 80.7329 31.3144 73.8102 27.5867C73.1692 27.2476 72.5792 26.9595 72.0049 26.6828C74.1131 27.0062 77.5076 27.0451 80.1271 24.7936C80.1271 24.7936 76.1191 27.7151 67.9062 25.0625C70.1799 26.5232 74.597 28.5839 78.6286 31.922C88.7099 40.6941 81.496 49.252 81.496 49.252C85.1187 45.5089 85.268 41.4968 84.2022 38.2208C86.1098 41.3642 87.3292 45.1815 87.1402 49.8871C86.8612 56.6298 83.1205 62.4611 79.183 67.1471C77.2912 69.422 76.8666 72.2149 76.8666 72.2149C76.8666 72.2149 77.6295 69.7492 79.8203 67.2132C84.0409 62.321 87.6476 57.2374 88.1197 49.9142C88.5563 51.2428 90.3539 54.9393 93.2055 56.3299C93.2133 56.3337 89.6301 54.1953 88.0174 45.8631Z" fill="black"/>
<path d="M34.2912 77.2549C34.2873 77.2432 33.5558 76.1096 33.3199 73.0439C33.0446 69.3708 31.6441 67.2283 30.2597 65.9974C30.6609 65.8105 31.0305 65.5807 31.3414 65.2964C33.375 63.4849 33.2882 61.3544 33.2764 61.1246L33.1978 59.9755L32.0335 59.9559C28.9303 59.9052 26.7627 58.986 25.0047 56.972C24.5956 56.4969 24.2653 56.0255 23.9978 55.562C24.9652 55.854 26.1492 56.0724 27.5534 56.0724C27.9312 56.0724 28.3206 56.0488 28.7335 56.0216C30.9164 55.8347 32.3955 54.5491 32.5606 54.4052L33.7681 53.3068L32.3875 52.4262C29.2998 50.4709 26.1453 46.7625 28.5683 40.2653C30.1376 36.0388 33.7681 32.2097 39.6681 28.5403C41.6585 27.2937 42.7478 25.8294 42.7478 24.427C42.7478 22.2613 40.9229 21.4082 39.5816 20.8004C38.9286 20.4927 38.2483 20.185 37.918 19.8072C36.8795 18.6191 37.7565 16.3366 38.7163 15.1016L39.9514 13.5008L37.9532 13.1111C37.8943 13.1034 37.3711 13.0061 36.5688 13.0061C35.0739 13.0061 32.2264 13.3645 29.8977 15.7523C27.9586 17.7389 27.7031 19.8539 27.8013 21.2172C27.6125 21.2328 27.4237 21.2408 27.227 21.2522H27.0147C24.0962 21.2522 22.7156 18.1908 22.6606 18.0699L21.8382 16.1573L20.5088 17.7699C20.4342 17.8675 18.4912 20.2668 18.9631 23.2701C19.2778 25.2683 20.5442 26.9899 22.7193 28.408C22.9553 28.556 23.1206 28.6883 23.2386 28.7937C19.1441 30.114 16.8548 33.0123 14.4357 36.0582L14.0856 36.4907C10.3885 41.1494 5.157 41.286 4.53161 41.286L2.75 41.2313L3.29263 42.91C3.3556 43.1126 4.93286 47.8804 9.66848 47.8804L9.89674 47.8729C10.3962 47.8572 10.8447 47.7909 11.246 47.713C11.0491 50.311 10.0854 55.1141 5.73124 56.9059L4.40178 57.4513L5.12179 58.6899C5.19248 58.8029 6.8052 61.5024 10.463 61.5024C12.0601 61.4984 13.3029 61.101 14.2352 60.622C14.3769 61.7983 14.6678 63.3097 15.2382 64.9963C16.5638 68.8994 15.3287 71.634 15.2814 71.7431L14.6285 73.1065L16.1076 73.4959C16.2058 73.5192 17.1144 73.7451 18.1881 73.7451C18.6917 73.7451 19.1559 73.6907 19.5729 73.5932C20.6939 73.3322 21.5591 72.8416 22.2158 72.2805C22.6171 73.5035 23.3055 74.8826 24.4974 76.1057C26.5267 78.1702 29.4453 79.2141 33.2606 79.2141L35.5736 79.1831L34.2912 77.2549ZM33.1741 77.9677C22.6682 77.9677 22.9359 69.0436 22.9359 69.0436C22.9359 69.0436 22.2043 71.6846 19.2739 72.3741C18.9238 72.4675 18.55 72.5028 18.1843 72.5028C17.2404 72.5028 16.4261 72.2844 16.4261 72.2844C16.4261 72.2844 17.9521 69.0786 16.4299 64.5953C15.1714 60.8751 15.376 58.1174 15.376 58.1174C15.376 58.1174 13.9638 60.2365 10.4515 60.2558H10.416C7.49359 60.2558 6.21912 58.0628 6.21912 58.0628C13.2204 55.1842 12.532 45.89 12.532 45.89C12.532 45.89 11.6236 46.56 9.84559 46.6263C9.78262 46.6302 9.72375 46.6302 9.66076 46.6302C5.79808 46.6302 4.49228 42.5362 4.49228 42.5362H4.57092C5.28296 42.5362 11.0139 42.3725 15.0691 37.2658C17.7398 33.9082 19.9306 30.9593 24.2455 29.7948L24.678 29.7208L24.7727 29.2923C24.8907 28.6378 24.4422 28.0263 23.4157 27.3641C17.4527 23.496 21.504 18.5645 21.504 18.5645C21.504 18.5645 23.1993 22.5068 27.0186 22.5068C27.1129 22.5068 27.1996 22.5027 27.2978 22.5027C27.7264 22.4792 28.1514 22.4637 28.5683 22.3742L29.2724 22.2378C29.2724 22.2378 28.1827 19.3125 30.8102 16.6248C32.7849 14.5954 35.1881 14.2526 36.5725 14.2526C37.2766 14.2526 37.7133 14.342 37.7133 14.342C36.3996 16.0482 35.4478 18.8763 36.9658 20.6214C38.2796 22.121 41.4853 22.195 41.4853 24.4309C41.4853 25.3774 40.5926 26.4839 38.9879 27.477C34.1614 30.4881 29.3708 34.4846 27.3804 39.8328C24.8946 46.5095 27.699 50.9382 31.7071 53.482C31.7071 53.482 30.4484 54.627 28.6274 54.7714C28.2576 54.8064 27.8997 54.8219 27.5534 54.8219C23.7145 54.8219 21.7282 53.0377 21.7282 53.0377C21.7282 53.0377 22.0585 55.5037 24.045 57.794C25.9015 59.909 28.3206 61.1556 32.0179 61.2064C32.0179 61.2064 32.136 62.9048 30.4996 64.373C29.4495 65.3001 27.0341 65.6039 27.0341 65.6039C27.0341 65.6039 31.5655 66.5116 32.0611 73.1336C32.3325 76.7211 33.249 77.9677 33.249 77.9677H33.1741Z" fill="black"/>
<path d="M9.77592 35.3856C10.2833 35.3856 10.7789 35.3114 11.2468 35.1515C12.5685 34.7193 13.4062 33.6792 14.2912 32.6002C15.1961 31.4939 16.2148 30.2475 17.9807 29.3165L19.798 28.3505L18.1105 27.1779C17.9689 27.0884 16.7024 26.2433 14.9914 26.2433C13.5833 26.2433 12.2775 26.8119 11.2036 27.9024C8.58399 30.5513 6.23583 30.7654 6.1492 30.7695L4.32031 30.8745L5.07166 32.5378C5.82661 34.1855 7.80513 35.3856 9.77592 35.3856ZM12.1043 28.783C13.0798 27.7894 14.1064 27.4936 14.9914 27.4936C16.3523 27.4936 17.3828 28.21 17.3828 28.21C13.7013 30.1539 12.9461 33.2665 10.8417 33.9675C10.4957 34.0882 10.1337 34.1429 9.77592 34.1429C8.23002 34.1429 6.73528 33.1534 6.22401 32.0199C6.22401 32.0161 9.05593 31.8444 12.1043 28.783Z" fill="black"/>
<path d="M18.0301 49.891C17.8335 45.1854 19.0529 41.368 20.9644 38.2246C19.8984 41.5005 20.044 45.5127 23.6706 49.2561C23.6706 49.2561 16.4567 40.6982 26.5417 31.9259C30.5776 28.5876 34.9908 26.5269 37.2604 25.0662C29.0514 27.7188 25.0432 24.7975 25.0432 24.7975C27.6627 27.0491 31.0574 27.0101 33.1658 26.6831C32.5954 26.9593 31.9974 27.2476 31.364 27.5865C24.4337 31.3143 18.215 37.4416 17.149 45.9255V45.8595C15.5404 54.1915 11.9609 56.3299 11.9609 56.3299C14.8088 54.9392 16.6025 51.2465 17.039 49.9145C17.515 57.2376 21.1217 62.3209 25.3422 67.2134C27.5331 69.749 28.3041 72.2149 28.3041 72.2149C28.3041 72.2149 27.8754 69.4218 25.9756 67.147C22.0461 62.4689 18.3054 56.6337 18.0301 49.891Z" fill="black"/>
<path d="M50.2109 32.7246V34.4073C50.7971 33.7023 51.9299 33.8466 51.9299 33.8466V36.2733C51.9299 36.2733 51.8905 37.4653 51.4618 37.9832H52.6889H53.9122C53.4915 37.4692 53.4479 36.2733 53.4479 36.2733V33.8466C53.4479 33.8466 54.5808 33.7023 55.163 34.4073V32.7246H52.6889H50.2109Z" fill="black"/>
<path d="M49.1574 22.7448C49.9401 23.3605 50.3925 23.4616 50.4082 23.4734L50.715 23.6135V22.0281L47.8359 20.8284C47.8359 20.8322 47.8633 21.7475 49.1574 22.7448Z" fill="black"/>
<path d="M56.0067 22.7448C57.3087 21.7475 57.3322 20.8284 57.3322 20.8284L54.4531 22.0281V23.6135L54.7558 23.4734C54.7757 23.4616 55.224 23.3605 56.0067 22.7448Z" fill="black"/>
<path d="M61.1943 16.2901C61.1943 13.8867 57.1076 11.7249 52.596 11.7249H52.5921H52.5804H52.5686C48.057 11.7249 43.9702 13.8867 43.9702 16.2901L44.0608 16.8821L45.8621 27.1228L44.0531 28.1629L39.3722 30.8701H39.3881C39.3881 30.8701 38.334 31.4037 37.846 31.7348C36.0644 32.9621 35.6868 34.7498 36.7211 35.4899C36.977 34.0331 38.1411 32.5062 40.3201 32.5062C41.8896 32.5062 43.0853 33.3085 44.0531 34.5123C44.3007 34.8161 44.5368 35.1394 44.757 35.4899C45.0282 35.9299 45.2996 36.3159 45.5712 36.6898H33.5156C34.4006 38.4543 35.2422 40.3242 35.2422 42.3535V68.7791C35.2422 75.1752 40.2101 78.229 45.5829 78.229C49.7366 78.229 50.2953 78.0421 52.5884 80.3012C54.8697 78.0382 55.4282 78.229 59.5858 78.229C64.9625 78.229 69.9226 75.1752 69.9226 68.7791V42.3535C69.9226 40.3242 70.7644 38.4543 71.6532 36.6898H59.5935C59.8611 36.3196 60.1325 35.9299 60.4037 35.4899C60.628 35.1394 60.86 34.8161 61.1039 34.5123C62.0793 33.3048 63.2711 32.5062 64.8406 32.5062C67.0196 32.5062 68.18 34.0292 68.4396 35.4899C69.4743 34.7498 69.1004 32.9621 67.3067 31.7348C66.8269 31.4037 65.7726 30.8701 65.7726 30.8701H65.7886L61.1078 28.1629L59.3064 27.1228L61.1078 16.8821L61.1943 16.2901ZM45.7441 17.4821L52.0769 19.6088V29.46L47.416 27.0256L45.7441 17.4821ZM47.054 38.4074C48.0926 39.4318 49.1113 40.0669 50.0787 40.4174C49.9527 40.9122 49.7879 41.9329 50.2558 42.9493C50.6373 43.7673 51.3296 44.3985 52.3246 44.8192C52.4348 45.8321 53.0799 47.355 54.8697 48.029C54.087 48.8118 53.3237 49.548 53.013 49.848L45.7559 49.735C45.5909 49.653 45.3115 49.4701 45.1859 49.2092C45.17 49.1741 45.1464 49.1545 45.1348 49.1156L46.3184 49.3064C46.3462 49.3103 46.3695 49.3103 46.3932 49.3103C46.6215 49.3103 46.8219 49.1545 46.8614 48.9209C46.9006 48.6599 46.7237 48.4221 46.4681 48.3832L45.0127 48.1573L46.6292 42.6298L45.0992 39.4397L42.6449 42.0108L42.4952 47.7599L40.8474 47.503C40.5915 47.4522 40.3477 47.6394 40.3046 47.8924C40.2651 48.1459 40.4381 48.3832 40.6977 48.4301L41.39 48.5351C41.1423 48.6756 40.9811 48.7845 40.9613 48.8L40.8196 48.8974L40.7803 49.0691C40.3792 50.6817 41.2877 52.2125 42.2674 52.898L42.2318 53.1004C42.1925 53.35 42.2475 53.5912 42.397 53.7939C42.5386 54.0004 42.7588 54.125 43.0026 54.1678C43.054 54.1756 43.1088 54.1794 43.1562 54.1794C43.5808 54.1794 43.9508 53.8873 44.0569 53.4629C44.4226 53.5056 44.757 53.5133 44.9851 53.5133H45.1779L54.7005 55.2156L54.8617 55.1106C55.6207 54.5846 58.5118 52.4969 59.4598 51.8072C59.7193 52.0294 60.0104 52.232 60.3644 52.3993C60.0576 53.4197 60.038 54.9897 61.2534 56.2285H36.9847V42.3574C36.9847 41.0135 36.5876 39.6619 36.1194 38.4153H47.054V38.4074ZM58.8225 51.0984C57.859 51.7996 55.381 53.5912 54.4841 54.2145L45.8308 52.6759C45.8506 52.598 45.8701 52.524 45.8899 52.4461C46.0038 52.0019 46.1179 51.3943 46.1259 50.6817L53.3985 50.7985L53.5362 50.658C53.6464 50.5491 55.9514 48.3443 57.1274 47.0744C57.4066 47.421 57.7565 47.7524 58.2128 48.0443C58.0555 48.8858 58.1224 50.0855 58.8225 51.0984ZM44.3361 49.6141C44.5407 50.0388 44.9102 50.3232 45.1661 50.4829C45.1581 50.8801 45.1188 51.4995 45.0127 52.0449C44.989 52.1656 44.9577 52.2785 44.9221 52.3915C44.9026 52.4618 44.8828 52.5202 44.8671 52.5668C44.4856 52.5668 43.7342 52.5202 43.1207 52.2981C42.4404 52.0488 41.4256 50.814 41.6614 49.4546C41.9565 49.2752 42.6369 48.8974 43.2742 48.8974C43.7659 48.8935 44.1001 49.1233 44.3361 49.6141ZM43.4354 47.9043L43.5808 42.3845L44.8317 41.0719L45.6185 42.7001L44.0686 47.9976L43.4354 47.9043ZM58.744 76.519C58.2719 76.519 57.8353 76.5267 57.442 76.5424L58.4726 73.3677C58.6339 72.9275 57.8195 72.3627 57.4851 71.868C57.9925 72.1837 59.3064 72.873 59.9398 73.1497C59.8729 73.2508 58.744 76.519 58.744 76.519ZM61.9771 72.912L61.3046 76.3867C60.8759 76.445 60.4196 76.476 59.9515 76.4956L60.6595 73.1536C60.8718 72.16 58.1776 71.8523 56.8482 69.9009C56.1991 70.6253 54.9758 70.8398 53.7487 70.8398C52.6277 70.8398 51.5067 70.6604 50.8261 70.5281C50.653 70.5009 50.4878 70.4814 50.3266 70.4814C49.9333 70.4814 49.5752 70.6021 49.3275 71.0149L49.1308 71.3422L45.4612 70.4852L44.5486 71.981C44.4188 72.2226 44.4108 72.4291 44.6194 72.6547L44.8671 72.9238C44.6979 73.4535 43.9351 74.2519 43.9351 74.2519L43.3884 73.5779C42.9554 73.0989 43.0264 72.2265 43.4788 71.4162L44.9339 68.9815L48.0415 69.4256L47.5576 68.335C46.9086 66.8937 47.8958 65.0591 48.002 64.0033C47.9666 64.3228 47.6715 64.393 47.3254 64.393C47.0109 64.393 46.6607 64.3344 46.4286 64.3344C46.3382 64.3344 46.2595 64.3422 46.2163 64.3734L45.3745 64.8799L44.7098 64.2994C44.6311 64.1864 44.6036 63.9254 44.8002 63.7307L46.3382 62.0246L44.5212 59.9251L47.0659 61.1911L47.8406 60.2601C48.0533 60.4666 47.9627 61.008 47.9627 61.008C48.7573 61.0273 50.9833 62.2468 51.1015 65.0903C51.1093 65.1757 51.1093 65.2734 51.1093 65.3666C51.1093 65.3666 51.1291 65.4018 51.1684 65.4601C51.3257 65.6746 51.7583 66.2237 52.3088 66.2743L55.8254 66.6172H55.841C56.2267 66.6172 56.9936 66.1693 57.9768 66.1693C58.5118 66.1693 59.1096 66.3055 59.7469 66.7029C59.7469 66.7029 60.0654 66.4535 60.5847 66.4262C60.6239 66.4223 60.6675 66.4223 60.7068 66.4223C62.284 66.4223 62.9369 67.8326 63.7826 69.005C64.4199 69.897 65.2695 71.2215 65.2695 71.2215C64.9547 71.5914 64.6635 71.794 64.1759 71.794C64.0423 71.794 63.8887 71.7822 63.7235 71.7512C62.0321 71.4433 61.7885 68 60.8248 67.7272C60.7736 67.7117 60.7186 67.7078 60.6714 67.7078C60.3605 67.7078 60.2231 67.9806 60.2231 67.9806C60.6632 69.1528 60.4077 69.6283 60.8798 70.5319C61.2336 71.2019 61.8629 71.7551 62.1227 72.0161C62.1227 72.0238 62.0519 72.5303 61.9771 72.912ZM43.0932 69.6242L43.2544 70.0257C43.1483 70.3762 41.9291 70.8747 41.9291 70.8747L41.6653 70.3058C41.3861 69.6982 41.445 68.6739 42.2948 68.0467L44.2692 66.8548L46.3619 67.2948C46.3225 67.9531 46.7196 68.4441 46.7196 68.4441L44.5249 68.0273L43.2112 68.9271C42.991 69.079 42.9752 69.3634 43.0932 69.6242ZM62.3076 76.1958L62.9095 73.0871C62.9408 72.9042 62.98 72.6899 63.0076 72.5107C63.1768 72.581 63.3578 72.6393 63.5543 72.6744C63.7785 72.7172 63.9869 72.7366 64.1759 72.7366C65.0964 72.7366 65.6313 72.2575 65.9892 71.8485L66.4534 71.3149L66.0757 70.7307C66.0403 70.6722 65.2065 69.3634 64.5614 68.4673C64.4354 68.2922 64.3133 68.1168 64.1916 67.926C63.4601 66.8429 62.5436 65.4838 60.7068 65.4838L60.5415 65.4877C60.2386 65.507 59.9791 65.5653 59.7707 65.6432C59.1923 65.3745 58.5983 65.2383 57.9807 65.2383C57.2217 65.2383 56.5805 65.4448 56.1557 65.5888C56.0338 65.6239 55.9238 65.6628 55.8373 65.6785L52.4033 65.3433C52.3602 65.3358 52.2184 65.254 52.0493 65.0513V65.0356L52.7927 64.7396C52.5843 62.2896 50.2086 60.782 48.8831 60.2717C48.8242 60.0262 48.7062 59.7807 48.4978 59.5823L47.7582 58.8889L47.1091 59.6602L46.7906 60.0537L41.9841 58.098L45.1111 61.9856L43.8759 63.8359C43.4235 64.3112 43.9232 64.7865 43.9232 64.7865L45.1974 65.655L46.5192 65.1682C46.5663 65.1682 46.6057 65.18 46.6489 65.1837C46.5861 65.3823 46.5035 66.1613 46.4482 66.3795L44.1551 65.9315L41.744 67.2794C40.505 68.1792 40.3359 69.6711 40.7962 70.6918L41.0636 71.2719L41.445 72.0901L42.2868 71.7433C42.2987 71.7394 42.3105 71.7355 42.3181 71.728C42.0154 72.686 42.1375 73.5974 42.6801 74.1975L43.1914 74.8363L43.8721 75.6894L44.6194 74.8946C44.8397 74.6764 45.5516 73.8859 45.7719 73.208L45.933 72.6897L45.5673 72.2925L45.5082 72.2226L45.9175 71.5524L48.9105 72.2497L49.5832 72.4016L49.9411 71.8173L50.1378 71.4978C50.1732 71.4317 50.1849 71.4199 50.3227 71.4199C50.4289 71.4199 50.535 71.4317 50.6491 71.4551C51.7779 71.6654 52.8202 71.7708 53.7446 71.7708C54.6414 71.7708 55.1763 71.7355 55.8174 71.5253C55.8174 71.5253 57.4262 73.3326 57.4812 73.4027L56.4981 76.4099L56.4547 76.593C54.5903 76.7408 53.6818 77.1462 52.5843 78.2329C50.9913 76.6668 49.8623 76.5035 45.5792 76.5035C40.4539 76.5035 36.9809 73.5275 36.9809 68.7752V57.1556H68.18L68.188 68.7752C68.1917 72.6314 65.9066 75.3191 62.3076 76.1958ZM69.0532 38.4074C68.5774 39.654 68.18 41.0058 68.18 42.3496L68.1841 51.0205C66.3549 50.7167 66.1387 48.7649 66.1307 48.6794L66.0953 48.2821L65.702 48.247C64.9075 48.173 64.3804 47.8378 63.936 47.4096C63.0391 46.5215 63.0351 45.0802 63.0391 45.0683C63.0275 45.1423 62.0519 46.4939 63.1848 47.9703C63.6605 48.5936 64.3489 48.9755 65.2419 49.1274C65.4503 50.2103 66.2645 51.737 68.1841 51.9709V56.2167H62.7874C60.2975 54.8457 61.3516 52.4305 61.4028 52.3293L61.6153 51.8695L61.1393 51.6903C58.4449 50.701 59.1845 48.0366 59.2238 47.9236L59.3338 47.534L58.9681 47.3627C56.7417 46.342 57.0448 43.5883 57.0724 43.4753C56.3879 44.0244 56.14 45.1462 56.612 46.2448C56.3564 46.5331 56.0144 46.8836 55.6405 47.2653C53.3356 46.6852 53.265 44.5855 53.265 44.4883L53.2607 44.1647L52.958 44.0479C52.0573 43.7167 51.4396 43.2221 51.1367 42.5558C50.7948 41.8199 50.9165 41.0486 51.0111 40.6784C51.2746 40.7369 51.538 40.7799 51.7898 40.7992C52.0493 40.8264 52.3168 40.8421 52.5843 40.8421H52.6001H52.6197C52.8872 40.8421 53.1509 40.8264 53.4104 40.7992C54.846 40.659 56.4547 40.0475 58.1304 38.4035H69.0532V38.4074ZM60.6438 29.6429L62.7755 30.8701H62.807L63.342 31.1778C62.1384 31.5089 61.2181 32.1049 60.4472 32.8879C60.4196 32.9113 60.3922 32.9425 60.3644 32.9696C60.1875 33.1566 60.0104 33.3592 59.8453 33.5658C59.8138 33.6047 59.7823 33.6476 59.7469 33.6904C59.5817 33.9006 59.4285 34.1151 59.2788 34.3408C59.2553 34.3799 59.2277 34.4189 59.2002 34.4537C59.0231 34.7147 58.8542 34.9953 58.685 35.2834C57.1667 37.8738 54.7437 39.4203 52.5884 39.4242C50.4368 39.4203 48.0139 37.8738 46.4955 35.2834C46.3302 35.0028 46.1652 34.7304 45.9881 34.4654C45.9527 34.4148 45.9212 34.3642 45.8899 34.3212C45.7404 34.1071 45.5909 33.8967 45.4375 33.6983C45.3982 33.6437 45.3626 33.6007 45.3234 33.554C45.1581 33.3552 44.989 33.1566 44.8198 32.9735C44.7846 32.9464 44.7609 32.9113 44.7255 32.8801C43.9508 32.0972 43.0341 31.5051 41.8266 31.1778L42.3694 30.8701H42.393L44.5249 29.6429L46.7158 28.4006L52.5686 31.5556L52.5804 31.544L52.596 31.5556L58.4488 28.4006L60.6438 29.6429ZM57.7565 27.0292L53.0918 29.4639V19.6088L59.4205 17.4821L57.7565 27.0292ZM52.5843 18.526L45.6459 15.811C46.2359 14.4282 48.9577 13.2516 52.5843 13.2478C56.2148 13.2516 58.9366 14.4282 59.5228 15.811L52.5843 18.526Z" fill="black"/>
<path d="M138.504 59.7517V44.1545H147.742V38.4788H122.539V44.1545H131.777V59.7517H138.504ZM156.936 50.8582V38.4788H150.434V59.7517H156.174L167.385 47.3723V59.7517H173.887V38.4788H168.147L156.936 50.8582ZM195.763 51.8415V59.7517H202.267V38.4788H195.763V46.2549H185.314V38.4788H178.812V59.7517H185.314V51.8415H195.763ZM220.374 59.7517C221.854 59.7517 223.199 59.6179 224.455 59.2602C227.82 58.3219 230.015 55.5954 230.015 51.8861C230.015 48.3556 228.133 45.8977 225.13 44.7801C223.691 44.244 221.99 44.1992 220.374 44.1992H213.692V38.4788H207.191V59.7517H220.374ZM219.252 49.2048C220.151 49.2048 221.002 49.2048 221.764 49.4729C222.841 49.8304 223.469 50.7242 223.469 51.7968C223.469 52.9141 222.841 53.8526 221.809 54.2994C221.092 54.6123 220.374 54.6123 219.252 54.6123H213.692V49.2048H219.252ZM241.674 51.7074L249.433 59.7517H258.087L247.281 48.6683L257.684 38.4788H249.523L241.674 46.4785H239.882V38.4788H233.381V59.7517H239.882V51.7074H241.674ZM271.466 37.8979C262.721 37.8979 257.476 42.8137 257.476 49.1598C257.476 55.5063 262.721 60.4223 271.466 60.4223C280.168 60.4223 285.415 55.5063 285.415 49.1598C285.415 42.8137 280.168 37.8979 271.466 37.8979ZM271.466 55.2381C267.117 55.2381 264.339 52.646 264.339 49.1598C264.339 45.6743 267.117 43.1266 271.466 43.1266C275.772 43.1266 278.597 45.6743 278.597 49.1598C278.597 52.646 275.772 55.2381 271.466 55.2381ZM307.071 37.2721H300.568V39.4171C292.407 39.5959 287.517 43.0371 287.517 49.1153C287.517 55.1932 292.407 58.3664 300.568 58.5453V60.6905H307.071V58.5453C315.275 58.3664 320.165 55.1932 320.165 49.1153C320.165 43.0371 315.275 39.5959 307.071 39.4171V37.2721ZM300.568 53.9867C296.083 53.8079 294.11 51.9756 294.11 49.1153C294.11 46.2549 296.083 44.1992 300.568 44.0206V53.9867ZM307.071 44.0206C311.601 44.1992 313.528 46.2549 313.528 49.1153C313.528 51.9756 311.601 53.8079 307.071 53.9867V44.0206ZM341.797 37.2721H335.294V39.4171C327.133 39.5959 322.247 43.0371 322.247 49.1153C322.247 55.1932 327.133 58.3664 335.294 58.5453V60.6905H341.797V58.5453C350.006 58.3664 354.893 55.1932 354.893 49.1153C354.893 43.0371 350.006 39.5959 341.797 39.4171V37.2721ZM335.294 53.9867C330.811 53.8079 328.838 51.9756 328.838 49.1153C328.838 46.2549 330.811 44.1992 335.294 44.0206V53.9867ZM341.797 44.0206C346.327 44.1992 348.256 46.2549 348.256 49.1153C348.256 51.9756 346.327 53.8079 341.797 53.9867V44.0206Z" fill="white"/>
</g>
<defs>
<clipPath id="clip0_403_7483">
<rect width="355" height="93" fill="white"/>
</clipPath>
</defs>
</svg>
