<svg width="25" height="24" viewBox="0 0 25 24" fill="none" xmlns="http://www.w3.org/2000/svg">
<path d="M23.1853 6.87407C22.1983 4.79773 20.6352 3.05416 18.6659 1.83085C15.9268 0.129472 12.6825 -0.409533 9.53729 0.312265C6.3921 1.03406 3.71443 2.92761 2.00488 5.64608C0.290609 8.35985 -0.25248 11.5798 0.474787 14.7014C1.20205 17.8229 3.10995 20.4804 5.84428 22.1771C7.77107 23.3723 9.9812 24.0051 12.2433 24.0051H12.3897C14.6423 23.9769 16.8336 23.3301 18.732 22.1396C19.2846 21.7928 19.4451 21.071 19.0957 20.5226C18.7462 19.9742 18.0189 19.8149 17.4664 20.1617C15.941 21.1226 14.1748 21.6428 12.3614 21.6663C10.5007 21.6897 8.68251 21.1788 7.09575 20.1992C2.54797 17.3683 1.15955 11.4017 4.00723 6.88813C6.85018 2.37455 12.8667 0.996568 17.4144 3.81814C19.0012 4.80242 20.2574 6.20383 21.0508 7.8724C21.8253 9.49879 22.1275 11.3033 21.9244 13.0844C21.8536 13.7265 22.3164 14.3077 22.9681 14.378C23.6151 14.4483 24.2007 13.9889 24.2715 13.3421C24.5218 11.1299 24.144 8.89417 23.1853 6.87407Z" fill="#D0A220"/>
<path d="M15.9011 15.053H8.61422C7.96252 15.053 7.43359 15.5779 7.43359 16.2247C7.43359 16.8715 7.96252 17.3965 8.61422 17.3965H15.8963C16.548 17.3965 17.077 16.8715 17.077 16.2247C17.077 15.5779 16.5528 15.053 15.9011 15.053Z" fill="#D0A220"/>
<path d="M15.9011 10.8347H8.61422C7.96252 10.8347 7.43359 11.3596 7.43359 12.0064C7.43359 12.6532 7.96252 13.1782 8.61422 13.1782H15.8963C16.548 13.1782 17.077 12.6532 17.077 12.0064C17.0817 11.3596 16.5528 10.8347 15.9011 10.8347Z" fill="#D0A220"/>
<path d="M15.9011 6.61157H8.61422C7.96252 6.61157 7.43359 7.13652 7.43359 7.78332C7.43359 8.43013 7.96252 8.95507 8.61422 8.95507H15.8963C16.548 8.95507 17.077 8.43013 17.077 7.78332C17.077 7.13652 16.5528 6.61157 15.9011 6.61157Z" fill="#D0A220"/>
</svg>
