<svg width="21" height="21" viewBox="0 0 21 21" fill="none" xmlns="http://www.w3.org/2000/svg">
<g clip-path="url(#clip0_279_7769)">
<path d="M6.71016 0H1.02539C0.459375 0 0 0.459375 0 1.02539V6.71016C0 8.19082 1.20176 9.39258 2.68242 9.39258H8.36719C8.9332 9.39258 9.39258 8.9332 9.39258 8.36719C9.39258 7.80117 8.9332 7.3418 8.36719 7.3418H2.68242C2.33379 7.3418 2.05078 7.05879 2.05078 6.71016V2.05078H6.71016C7.05879 2.05078 7.3418 2.33379 7.3418 2.68242V4.69219C7.3418 5.2582 7.80117 5.71758 8.36719 5.71758C8.9332 5.71758 9.39258 5.2582 9.39258 4.69219V2.68242C9.39258 1.20176 8.19082 0 6.71016 0Z" fill="#545454"/>
<path d="M18.3156 11.6074H12.6309C12.0648 11.6074 11.6055 12.0668 11.6055 12.6328V18.3176C11.6055 19.7982 12.8072 21 14.2879 21H19.9727C20.5387 21 20.998 20.5406 20.998 19.9746C20.998 19.4086 20.5387 18.9492 19.9727 18.9492H14.2879C13.9393 18.9492 13.6562 18.6662 13.6562 18.3176V13.6582H18.3156C18.6643 13.6582 18.9473 13.9412 18.9473 14.2898V16.2996C18.9473 16.8656 19.4066 17.325 19.9727 17.325C20.5387 17.325 20.998 16.8656 20.998 16.2996V14.2898C20.998 12.8092 19.7963 11.6074 18.3156 11.6074Z" fill="#545454"/>
<path d="M19.9727 5.72168C20.5387 5.72168 20.998 5.2623 20.998 4.69629V2.68652C20.998 1.20176 19.7963 0 18.3156 0H12.6309C12.0648 0 11.6055 0.459375 11.6055 1.02539V6.71016C11.6055 8.19082 12.8072 9.39258 14.2879 9.39258H19.9727C20.5387 9.39258 20.998 8.9332 20.998 8.36719C20.998 7.80117 20.5387 7.3418 19.9727 7.3418H14.2879C13.9393 7.3418 13.6562 7.05879 13.6562 6.71016V2.05078H18.3156C18.6643 2.05078 18.9473 2.33379 18.9473 2.68242V4.69219C18.9473 5.2623 19.4066 5.72168 19.9727 5.72168Z" fill="#545454"/>
<path d="M6.71016 11.6074H1.02539C0.459375 11.6074 0 12.0668 0 12.6328V18.3176C0 19.7982 1.20176 21 2.68242 21H8.36719C8.9332 21 9.39258 20.5406 9.39258 19.9746C9.39258 19.4086 8.9332 18.9492 8.36719 18.9492H2.68242C2.33379 18.9492 2.05078 18.6662 2.05078 18.3176V13.6582H6.71016C7.05879 13.6582 7.3418 13.9412 7.3418 14.2898V16.2996C7.3418 16.8656 7.80117 17.325 8.36719 17.325C8.9332 17.325 9.39258 16.8656 9.39258 16.2996V14.2898C9.39258 12.8092 8.19082 11.6074 6.71016 11.6074Z" fill="#545454"/>
</g>
<defs>
<clipPath id="clip0_279_7769">
<rect width="21" height="21" fill="white"/>
</clipPath>
</defs>
</svg>
