<svg width="25" height="25" viewBox="0 0 25 25" fill="none" xmlns="http://www.w3.org/2000/svg">
<path d="M23.0252 6.87407C22.0382 4.79773 20.475 3.05416 18.5057 1.83085C15.7667 0.129472 12.5223 -0.409533 9.37713 0.312265C6.23194 1.03406 3.55427 2.92761 1.84472 5.64608C0.130453 8.35985 -0.412636 11.5798 0.314631 14.7014C1.0419 17.8229 2.94979 20.4804 5.68413 22.1771C7.61091 23.3723 9.82105 24.0051 12.0831 24.0051H12.2295C14.4822 23.9769 16.6734 23.3301 18.5719 22.1396C19.1244 21.7928 19.285 21.071 18.9355 20.5226C18.586 19.9742 17.8588 19.8149 17.3062 20.1617C15.7809 21.1226 14.0146 21.6428 12.2012 21.6663C10.3405 21.6897 8.52236 21.1788 6.93559 20.1992C2.38781 17.3683 0.999395 11.4017 3.84707 6.88813C6.69002 2.37455 12.7065 0.996568 17.2543 3.81814C18.841 4.80242 20.0972 6.20383 20.8906 7.8724C21.6651 9.49879 21.9673 11.3033 21.7643 13.0844C21.6934 13.7265 22.1562 14.3077 22.808 14.378C23.4549 14.4483 24.0405 13.9889 24.1114 13.3421C24.3617 11.1299 23.9839 8.89417 23.0252 6.87407V6.87407Z" fill="#545454"/>
<path d="M15.7409 15.053H8.45407C7.80236 15.053 7.27344 15.5779 7.27344 16.2247C7.27344 16.8715 7.80236 17.3965 8.45407 17.3965H15.7362C16.3879 17.3965 16.9168 16.8715 16.9168 16.2247C16.9168 15.5779 16.3926 15.053 15.7409 15.053Z" fill="#545454"/>
<path d="M15.7409 10.8347H8.45407C7.80236 10.8347 7.27344 11.3596 7.27344 12.0064C7.27344 12.6532 7.80236 13.1782 8.45407 13.1782H15.7362C16.3879 13.1782 16.9168 12.6532 16.9168 12.0064C16.9215 11.3596 16.3926 10.8347 15.7409 10.8347V10.8347Z" fill="#545454"/>
<path d="M15.7409 6.61157H8.45407C7.80236 6.61157 7.27344 7.13652 7.27344 7.78332C7.27344 8.43013 7.80236 8.95507 8.45407 8.95507H15.7362C16.3879 8.95507 16.9168 8.43013 16.9168 7.78332C16.9168 7.13652 16.3926 6.61157 15.7409 6.61157Z" fill="#545454"/>
</svg>
