<svg width="28" height="17" viewBox="0 0 28 17" fill="none" xmlns="http://www.w3.org/2000/svg">
<path fill-rule="evenodd" clip-rule="evenodd" d="M26.3838 1.29407C26.5712 0.669505 26.3838 0.210449 25.4922 0.210449H22.5441C21.7945 0.210449 21.4492 0.606963 21.2617 1.04433C21.2617 1.04433 19.7624 4.69844 17.6386 7.07205C16.9515 7.75916 16.6392 7.97753 16.2644 7.97753C16.077 7.97753 15.8057 7.75916 15.8057 7.13459V1.29407C15.8057 0.544423 15.5882 0.210449 14.9634 0.210449H10.3308C9.86245 0.210449 9.5807 0.55832 9.5807 0.888082C9.5807 1.59877 10.6424 1.7626 10.7519 3.76138V8.10282C10.7519 9.05462 10.5801 9.22729 10.2053 9.22729C9.20588 9.22729 6.77499 5.55654 5.33297 1.35661C5.05038 0.540211 4.76695 0.210449 4.01351 0.210449H1.06545C0.223148 0.210449 0.0546875 0.606963 0.0546875 1.04433C0.0546875 1.82514 1.05429 5.69805 4.70841 10.8201C7.14476 14.3177 10.5767 16.2142 13.7 16.2142C15.5741 16.2142 15.8057 15.793 15.8057 15.0676V12.4238C15.8057 11.5815 15.9832 11.4135 16.5764 11.4135C17.014 11.4135 17.7635 11.6321 19.5127 13.3186C21.5115 15.3171 21.8408 16.2142 22.9653 16.2142H25.9134C26.7557 16.2142 27.1768 15.793 26.9338 14.9619C26.6681 14.1335 25.7137 12.9319 24.4473 11.5072C23.7602 10.695 22.7295 9.82048 22.4174 9.38333C21.98 8.82109 22.1049 8.57135 22.4174 8.07186C22.4174 8.07186 26.009 3.01216 26.3838 1.29428V1.29407Z" fill="#8C8C8C"/>
</svg>
