<svg width="22" height="23" viewBox="0 0 22 23" fill="none" xmlns="http://www.w3.org/2000/svg">
<path d="M18.8229 3.35676C16.7847 1.18108 13.9673 0 11.0899 0C4.97548 0 0.0599455 5.15946 0.119891 11.4378C0.119891 13.427 0.6594 15.3541 1.55858 17.0946L0 23L5.81471 21.4459C7.43324 22.3784 9.23161 22.8135 11.03 22.8135C17.0845 22.8135 22 17.6541 22 11.3757C22 8.32973 20.861 5.47027 18.8229 3.35676ZM11.0899 20.8865C9.47139 20.8865 7.85286 20.4514 6.47411 19.5811L6.11444 19.3946L2.6376 20.327L3.53678 16.7838L3.297 16.4108C0.6594 11.9973 1.91826 6.15405 6.23433 3.41892C10.5504 0.683784 16.1253 1.98919 18.7629 6.46486C21.4005 10.9405 20.1417 16.7216 15.8256 19.4568C14.4469 20.3892 12.7684 20.8865 11.0899 20.8865ZM16.3651 13.9865L15.7057 13.6757C15.7057 13.6757 14.7466 13.2405 14.1471 12.9297C14.0872 12.9297 14.0272 12.8676 13.9673 12.8676C13.7875 12.8676 13.6676 12.9297 13.5477 12.9919C13.5477 12.9919 13.4877 13.0541 12.6485 14.0486C12.5886 14.173 12.4687 14.2351 12.3488 14.2351H12.2888C12.2289 14.2351 12.109 14.173 12.049 14.1108L11.7493 13.9865C11.0899 13.6757 10.4905 13.3027 10.0109 12.8054C9.89101 12.6811 9.71117 12.5568 9.59128 12.4324C9.17166 11.9973 8.75204 11.5 8.45232 10.9405L8.39237 10.8162C8.33242 10.7541 8.33242 10.6919 8.27248 10.5676C8.27248 10.4432 8.27248 10.3189 8.33242 10.2568C8.33242 10.2568 8.57221 9.94595 8.75204 9.75946C8.87193 9.63514 8.93188 9.44865 9.05177 9.32432C9.17166 9.13784 9.23161 8.88919 9.17166 8.7027C9.11172 8.39189 8.39237 6.71351 8.21253 6.34054C8.09264 6.15405 7.97275 6.09189 7.79291 6.02973H7.61308C7.49319 6.02973 7.31335 6.02973 7.13351 6.02973C7.01362 6.02973 6.89373 6.09189 6.77384 6.09189L6.7139 6.15405C6.59401 6.21622 6.47411 6.34054 6.35422 6.4027C6.23433 6.52703 6.17439 6.65135 6.0545 6.77568C5.63488 7.33513 5.39509 8.01892 5.39509 8.7027C5.39509 9.2 5.51499 9.6973 5.69482 10.1324L5.75477 10.3189C6.29428 11.5 7.01362 12.5568 7.97275 13.4892L8.21253 13.7378C8.39237 13.9243 8.57221 14.0486 8.6921 14.2351C9.95095 15.3541 11.3896 16.1622 13.0082 16.5973C13.188 16.6595 13.4278 16.6595 13.6076 16.7216C13.7875 16.7216 14.0272 16.7216 14.2071 16.7216C14.5068 16.7216 14.8665 16.5973 15.1063 16.473C15.2861 16.3486 15.406 16.3486 15.5259 16.2243L15.6458 16.1C15.7657 15.9757 15.8856 15.9135 16.0054 15.7892C16.1253 15.6649 16.2452 15.5405 16.3052 15.4162C16.4251 15.1676 16.485 14.8568 16.545 14.5459C16.545 14.4216 16.545 14.2351 16.545 14.1108C16.545 14.1108 16.485 14.0486 16.3651 13.9865Z" fill="#8C8C8C"/>
</svg>
