<svg width="21" height="21" viewBox="0 0 21 21" fill="none" xmlns="http://www.w3.org/2000/svg">
<path fill-rule="evenodd" clip-rule="evenodd" d="M14.4626 0.0325341C14.7072 0.0980648 14.9157 0.258056 15.0422 0.47731L16.9709 3.81818H19.0909C19.5972 3.81818 20.0828 4.01932 20.4408 4.37734C20.7989 4.73537 21 5.22095 21 5.72727V19.0909C21 19.5972 20.7989 20.0828 20.4408 20.4408C20.0828 20.7989 19.5972 21 19.0909 21H1.90909C1.40277 21 0.917185 20.7989 0.55916 20.4408C0.201135 20.0828 0 19.5972 0 19.0909V5.72727C0 5.22095 0.201136 4.73537 0.55916 4.37734C0.917183 4.01932 1.40277 3.81818 1.90909 3.81818H7.34638L13.7383 0.127883C13.9576 0.00130158 14.2181 -0.0329965 14.4626 0.0325341ZM14.7625 3.81114L13.8661 2.25849L11.1836 3.80725L14.7625 3.81114ZM19.0909 15.75H15.8693C14.0024 15.75 12.4091 14.2973 12.4091 12.4091C12.4091 10.5209 14.0024 9.06818 15.8693 9.06818H19.0909V5.72727H1.90909V19.0909H19.0909V15.75ZM19.0909 10.9773H15.8693C14.9681 10.9773 14.3182 11.6618 14.3182 12.4091C14.3182 13.1564 14.9681 13.8409 15.8693 13.8409H19.0909V10.9773Z" fill="#D0A220"/>
</svg>
