<svg width="26" height="19" viewBox="0 0 26 19" fill="none" xmlns="http://www.w3.org/2000/svg">
<path fill-rule="evenodd" clip-rule="evenodd" d="M23.0396 0.909218C24.1217 1.20055 24.9749 2.05376 25.2662 3.13586C25.8073 5.11279 25.7865 9.23312 25.7865 9.23312C25.7865 9.23312 25.7865 13.3326 25.2662 15.3096C24.9749 16.3917 24.1217 17.2449 23.0396 17.5362C21.0627 18.0565 13.155 18.0565 13.155 18.0565C13.155 18.0565 5.26806 18.0565 3.27033 17.5154C2.18822 17.2241 1.33502 16.3709 1.04368 15.2888C0.523438 13.3326 0.523438 9.21231 0.523438 9.21231C0.523438 9.21231 0.523438 5.11279 1.04368 3.13586C1.33502 2.05376 2.20903 1.17974 3.27033 0.888408C5.24725 0.368164 13.155 0.368164 13.155 0.368164C13.155 0.368164 21.0627 0.368164 23.0396 0.909218ZM17.2126 9.21218L10.6367 12.9996V5.4248L17.2126 9.21218Z" fill="#D0A220"/>
</svg>
